<?xml version="1.0" standalone="no"?>
<!DOCTYPE svg PUBLIC "-//W3C//DTD SVG 1.1//EN" "http://www.w3.org/Graphics/SVG/1.1/DTD/svg11.dtd" >
<svg>
<metadata>
Created by FontForge 20120731 at Mon Nov 14 23:53:03 2016
 By Apache
Copyright (c) 2010-2016 j. 'mach' wust, Gerrit Ansmann, Georg Duffner with Reserved Font Name UnifrakturMaguntia.
Copyright (c) 2009 Peter Wiegel.

This Font Software is licensed under the SIL Open Font License, Version 1.1.
</metadata>
<defs>
<font id="UnifrakturMaguntia16" horiz-adv-x="2048" >
  <font-face 
    font-family="UnifrakturMaguntia16"
    font-weight="400"
    font-stretch="normal"
    units-per-em="2048"
    panose-1="2 11 6 3 5 3 2 2 2 4"
    ascent="1638"
    descent="-410"
    x-height="1071"
    cap-height="1471"
    bbox="-731 -421 2306 1667"
    underline-thickness="0"
    underline-position="0"
    unicode-range="U+0020-FB05"
  />
<missing-glyph horiz-adv-x="748" 
d="M68 0v1365h544v-1365h-544zM136 68h408v1229h-408v-1229z" />
    <glyph glyph-name="c_h" unicode="ch" horiz-adv-x="1529" 
d="M68 547q0 328 275 444q144 61 209 61q7 0 10 -7q59 -152 112 -152q9 0 14 4l24 18q14 10 14 38v55q0 198 -116 314q-11 11 -11 27q0 19 21 19q23 0 103 -123q11 -17 21.5 -17t19.5 15q123 205 367 205q38 0 38 -22.5t-38 -22.5q-202 0 -202 -254v-246q0 -17 2.5 -17
t4.5 5l221 163q29 17 44.5 17t15.5 -18q0 -26 55 -79q202 -195 202 -500q0 -329 -650 -860q-11 -9 -27 -9t-16 21q0 11 13 22q477 403 477 715q0 308 -155 474q-45 48 -78.5 48t-52.5 -13l-53 -40q-3 -12 -3 -34v-532q0 -72 69 -72q26 0 72 49q13 14 23 14q22 0 22 -21
q0 -9 -12 -23q-103 -122 -152 -219q-7 -14 -18 -14t-24 14q-129 139 -243 139q-118 0 -257 -140q-13 -13 -27 -13t-20.5 24t-29.5 39q-264 162 -264 504zM271 643q0 -202 54 -300q99 -180 226 -180q54 0 114.5 31t60.5 98v548q0 19 -7 19q-18 0 -141 -112q-16 -15 -28.5 -15
t-22.5 7q-87 64 -141 202q-4 10 -9 10t-8 -1q-98 -33 -98 -307z" />
    <glyph glyph-name="c_k" unicode="ck" horiz-adv-x="1199" 
d="M68 547q0 328 274 444q144 61 210 61q7 0 10 -7q59 -140 107 -140q57 0 57 103q0 198 -116 314q-11 11 -11 27q0 19 21 19q23 0 103 -123q11 -17 21.5 -17t19.5 15q123 205 367 205q38 0 38 -22.5t-38 -22.5q-202 0 -202 -254q0 -31 11.5 -31t33.5 32q90 132 177 132
q18 0 18 -17v-171q0 -15 -14 -15t-25 1.5t-25 1.5q-74 0 -122 -37q-39 -30 -39 -58.5t26 -28.5h177q22 0 22 -22v-65q0 -22 -22 -22h-196q-22 0 -22 -22v-561q0 -72 69 -72q26 0 71 49q13 14 23 14q23 0 23 -21q0 -9 -12 -23q-103 -122 -152 -219q-7 -14 -18 -14t-24 14
q-129 139 -243 139q-118 0 -257 -140q-13 -13 -27 -13t-20.5 24t-29.5 39q-264 162 -264 504zM271 643q0 -202 54 -300q99 -180 226 -180q54 0 114.5 31t60.5 98v538q0 19 -15 19q-39 0 -133 -102q-12 -12 -22 -12t-17 4q-76 36 -152 203q-5 9 -10 9t-8 -1q-98 -33 -98 -307
z" />
    <glyph glyph-name="t_t" unicode="tt" horiz-adv-x="1139" 
d="M27 862.5q0 13.5 24 30.5q268 190 421 405q17 24 32 24q19 0 19 -20q0 -11 -15 -31q-140 -195 -140 -299q0 -14 15 -14h204q77 0 148 57q148 121 264 283q17 24 32 24q19 0 19 -20q0 -11 -15 -31q-140 -206 -140 -299q0 -14 15 -14h165q22 0 22 -22v-65q0 -22 -22 -22
h-161q-22 0 -22 -22v-571q0 -73 69 -73q26 0 72 49q13 14 23 14q23 0 23 -21q0 -9 -12 -23q-104 -117 -153 -209q-7 -13 -18 -13t-24 13q-128 130 -243 144q-17 1 -17 12.5t11 17.5q66 36 66 117v543q0 22 -20 22h-282q-22 0 -22 -22v-571q0 -73 69 -73q26 0 72 49
q13 14 23 14q23 0 23 -21q0 -9 -12 -23q-104 -117 -153 -209q-7 -13 -18 -13t-24 13q-128 130 -243 144q-17 1 -17 12.5t11 17.5q66 36 66 117v543q0 22 -20 22h-89q-26 0 -26 13.5z" />
    <glyph glyph-name="t_z" unicode="t&#x7a;" horiz-adv-x="1015" 
d="M27 857q0 8 24 22q270 205 421 419q17 24 32 24q19 0 19 -20q0 -9 -15 -31q-143 -208 -143 -403q0 -24 39 3l271 191q13 9 22 9t17 -16t54 -66q121 -110 121 -230q0 -64 -76 -134q-9 -10 -9 -16t9 -14q140 -144 140 -310q0 -305 -570 -677q-9 -7 -21 -7q-20 0 -20 22
q0 11 12 20q396 272 396 596q0 116 -78 208q-30 36 -76 36q-39 0 -114 -25q-6 -2 -11 -2q-20 0 -20 24q0 14 19 21q65 23 143 81q73 54 73 143q0 62 -58 110q-40 33 -84.5 33t-94.5 -20l-58 -41q-26 -18 -26 -48v-493q0 -72 69 -72q26 0 72 49q13 14 23 14q23 0 23 -21
q0 -9 -12 -23q-104 -122 -153 -219q-7 -14 -18 -14t-24 14q-128 137 -243 151q-17 2 -17 14t11 18q66 36 66 115v535q0 22 -20 22h-89q-26 0 -26 8z" />
    <glyph glyph-name="longs_i" unicode="&#x17f;i" horiz-adv-x="1019" 
d="M631 1226q0 23 13 45q26 47 47.5 107.5t90.5 60.5q102 0 102 -90q0 -64 -50.5 -121.5t-115.5 -57.5q-87 0 -87 56zM524 815q0 8 6 17l154 226q9 13 18 13t17 -11q80 -109 148 -145q62 -31 62 -42t-15 -17q-65 -26 -65 -116v-487q0 -70 58 -70q20 0 37 24t34 24
q18 0 18 -20q0 -9 -16 -31q-77 -100 -120 -183q-9 -17 -23.5 -17t-22.5 16t-32 28q-136 65 -136 211v546q0 15 -8 22q-17 15 -30 32q-4 6 -10 6q-5 0 -11 -5l-19 -28q-10 -15 -20 -15q-24 0 -24 22zM7 867q0 18 25 27q127 43 127 279q0 177 63 240q34 35 83 35t109 -46
t99 -46t54 56q10 36 27 36q19 0 19 -26q0 -12 -4 -24q-68 -214 -192 -214q-47 0 -96.5 30.5t-74.5 30.5q-42 0 -42 -72q0 -109 83.5 -173.5t83.5 -172.5q0 -318 -92 -1200q-4 -34 -18.5 -34t-18.5 34q-97 882 -97 1200q0 22 -21 22h-85q-32 0 -32 18z" />
    <glyph glyph-name="longs_k" unicode="&#x17f;k" horiz-adv-x="1132" 
d="M7 867q0 18 25 27q127 43 127 279q0 177 63 240q34 35 83 35t109 -45t99 -45t54 61q10 29 27 29q19 0 19 -21q0 -11 -4 -23q-11 -40 -11 -78q21 -31 51 -78q5 -38 10.5 -38t10.5 15q133 223 369 223q38 0 38 -22.5t-38 -22.5q-204 0 -204 -271q0 -30 11.5 -30t33.5 31
q92 133 179 133q18 0 18 -17v-171q0 -15 -14 -15t-25 1.5t-25 1.5q-76 0 -124 -32q-39 -27 -39 -51.5t26 -24.5h179q22 0 22 -22v-65q0 -22 -22 -22h-198q-22 0 -22 -22v-561q0 -72 69 -72q26 0 73 49q13 14 23 14q23 0 23 -21q0 -9 -12 -23q-105 -122 -154 -219
q-7 -14 -18 -14t-24 14q-128 137 -244 151q-16 2 -16 14t10 18q67 36 67 115v535q0 22 -21 22h-86q-31 0 -31 18t25 27q113 36 113 119q14 140 -23 207q-18 27 -29 52q-4 -6 -9.5 -6t-11.5 -8q-58 -72 -142 -72q-47 0 -96.5 29.5t-74.5 29.5q-42 0 -42 -72
q0 -109 83.5 -173.5t83.5 -172.5q0 -318 -92 -1200q-4 -34 -18.5 -34t-18.5 34q-97 858 -97 1200q0 22 -21 22h-85q-32 0 -32 18z" />
    <glyph glyph-name="longs_l" unicode="&#x17f;l" horiz-adv-x="1052" 
d="M7 867q0 18 25 27q127 44 127 282q0 175 63 237q34 35 83 35t109 -45t99 -45t54 61q10 29 27 29q19 0 19 -21q0 -11 -4 -23q-11 -40 -11 -78q21 -31 51 -78q5 -37 10.5 -37t10.5 15q134 222 368 222q38 0 38 -22.5t-38 -22.5q-203 0 -203 -254v-883q0 -72 69 -72
q26 0 72 49q13 14 23 14q23 0 23 -21q0 -9 -12 -23q-104 -122 -153 -219q-7 -14 -18 -14t-24 14q-128 137 -244 151q-16 2 -16 14t10 18q67 36 67 115v716q14 144 -24 212q-17 27 -28 52q-4 -6 -9.5 -6t-11.5 -8q-60 -72 -142 -72q-47 0 -96.5 29.5t-74.5 29.5
q-42 0 -42 -69q0 -110 83.5 -175t83.5 -174q0 -318 -92 -1200q-4 -34 -18.5 -34t-18.5 34q-97 882 -97 1200q0 22 -21 22h-85q-32 0 -32 18z" />
    <glyph glyph-name="f_t" unicode="ft" horiz-adv-x="1096" 
d="M7 867q0 18 25 27q127 43 127 279q0 177 63 240q34 35 83 35t109 -46t99 -46t54 56q10 36 27 36q19 0 19 -26q0 -12 -4 -24q-68 -214 -192 -214q-47 0 -96.5 30.5t-74.5 30.5q-42 0 -42 -72q0 -106 84 -169q17 -13 33 -29.5t38 -16.5h174q82 0 147 54q146 125 209 284
q11 48 27 48q19 0 19 -30q0 -16 -4 -33q-95 -270 -95 -309q0 -14 17 -14h165q22 0 22 -22v-65q0 -22 -22 -22h-161q-22 0 -22 -22v-561q0 -72 69 -72q26 0 72 49q13 14 23 14q23 0 23 -21q0 -9 -12 -23q-104 -122 -153 -219q-7 -14 -18 -14t-24 14q-128 137 -244 151
q-16 2 -16 14t10 18q67 36 67 115v535q0 22 -20 22h-220q-21 0 -21 -22q0 -318 -92 -1200q-4 -34 -18.5 -34t-18.5 34q-97 858 -97 1200q0 22 -21 22h-85q-32 0 -32 18z" />
    <glyph glyph-name="f_f_t" unicode="fft" horiz-adv-x="1578" 
d="M7 867q0 18 25 27q127 43 127 279q0 177 63 240q34 35 83 35t109 -46t99 -46t54 56q10 36 27 36q19 0 19 -26q0 -12 -4 -24q-68 -214 -192 -214q-47 0 -96.5 30.5t-74.5 30.5q-42 0 -42 -72q0 -106 84 -169q17 -13 33 -29.5t37 -16.5h176q92 0 92 215q0 177 63 240
q34 35 83 35t109 -46t99 -46t54 56q10 36 27 36q19 0 19 -26q0 -12 -4 -24q-68 -214 -192 -214q-47 0 -96.5 30.5t-74.5 30.5q-42 0 -42 -72q0 -106 84 -169q17 -13 33 -29.5t38 -16.5h174q82 0 147 54q146 125 209 284q11 48 27 48q19 0 19 -30q0 -16 -4 -33
q-95 -270 -95 -309q0 -14 17 -14h165q22 0 22 -22v-65q0 -22 -22 -22h-161q-22 0 -22 -22v-561q0 -72 69 -72q26 0 72 49q13 14 23 14q23 0 23 -21q0 -9 -12 -23q-104 -122 -153 -219q-7 -14 -18 -14t-24 14q-128 137 -244 151q-16 2 -16 14t10 18q67 36 67 115v535
q0 22 -20 22h-220q-21 0 -21 -22q0 -318 -92 -1200q-4 -34 -18.5 -34t-18.5 34q-97 858 -97 1200q0 22 -21 22h-199q-21 0 -21 -22q0 -318 -92 -1200q-4 -34 -18.5 -34t-18.5 34q-97 858 -97 1200q0 22 -21 22h-85q-32 0 -32 18z" />
    <glyph glyph-name="f_f" unicode="ff" horiz-adv-x="1068" 
d="M6 867q0 18 25 27q127 43 127 279q0 177 63 240q34 35 83.5 35t109.5 -46t99 -46t54 56q10 36 27 36q19 0 19 -26q0 -12 -4 -24q-68 -214 -192 -214q-48 0 -97 30.5t-75 30.5q-42 0 -42 -72q0 -106 84 -169q18 -13 33.5 -29.5t37.5 -16.5h175q92 0 92 215q0 177 63 240
q34 35 83.5 35t109.5 -46t99 -46t54 56q10 36 27 36q19 0 19 -26q0 -12 -4 -24q-68 -214 -192 -214q-48 0 -97 30.5t-75 30.5q-42 0 -42 -72q0 -106 84 -169q18 -13 32.5 -29.5t34.5 -16.5h152q36 0 36 -22v-65q0 -22 -24 -22h-124q-23 0 -23 -22q0 -318 -93 -1200
q-3 -34 -18 -34t-19 34q-96 858 -96 1200q0 22 -21 22h-199q-21 0 -21 -22q0 -318 -93 -1200q-3 -34 -18 -34t-19 34q-96 858 -96 1200q0 22 -21 22h-86q-32 0 -32 18z" />
    <glyph glyph-name="f_i" unicode="fi" horiz-adv-x="1011" 
d="M631 1226q0 23 13 45q26 47 47.5 107.5t90.5 60.5q102 0 102 -90q0 -64 -50.5 -121.5t-115.5 -57.5q-87 0 -87 56zM7 867q0 18 25 27q127 43 127 280q0 176 63 239q34 35 83 35t109 -46t99 -46t54 56q10 36 27 36q19 0 19 -26q0 -12 -4 -24q-68 -214 -192 -214
q-47 0 -96.5 30.5t-74.5 30.5q-42 0 -42 -71q0 -104 84 -166q17 -14 33 -32t37 -18h222q21 0 33 18l57 82q9 13 17.5 13t17.5 -11q80 -108 148 -142q62 -31 62 -42t-15 -17q-65 -26 -65 -117v-489q0 -70 58 -70q20 0 37 24t34 24q18 0 18 -20q0 -9 -16 -31
q-77 -100 -120 -183q-9 -17 -23.5 -17t-22.5 16t-32 28q-136 65 -136 211v549q0 14 -8 21q-17 16 -25 26q-12 18 -36 18h-171q-21 0 -21 -22q0 -318 -92 -1200q-4 -34 -18.5 -34t-18.5 34q-97 858 -97 1200q0 22 -21 22h-85q-32 0 -32 18z" />
    <glyph glyph-name="f_l" unicode="fl" horiz-adv-x="1052" 
d="M7 867q0 18 25 27q127 44 127 282q0 175 63 237q34 35 83 35t109 -45t99 -45t54 61q10 29 27 29q19 0 19 -21q0 -11 -4 -23q-11 -40 -11 -78q21 -31 51 -78q5 -37 10.5 -37t10.5 15q134 222 368 222q38 0 38 -22.5t-38 -22.5q-203 0 -203 -254v-883q0 -72 69 -72
q26 0 72 49q13 14 23 14q23 0 23 -21q0 -9 -12 -23q-104 -122 -153 -219q-7 -14 -18 -14t-24 14q-128 137 -244 151q-16 2 -16 14t10 18q67 36 67 115v716q14 144 -24 212q-17 27 -28 52q-4 -6 -9.5 -6t-11.5 -8q-60 -72 -142 -72q-47 0 -96.5 29.5t-74.5 29.5
q-42 0 -42 -69q0 -107 84 -171q17 -13 31 -30t36 -17h151q37 0 37 -22v-65q0 -22 -24 -22h-125q-23 0 -23 -22q0 -318 -92 -1200q-4 -34 -18.5 -34t-18.5 34q-97 882 -97 1200q0 22 -21 22h-85q-32 0 -32 18z" />
    <glyph glyph-name="f_f_i" unicode="ffi" horiz-adv-x="1493" 
d="M1114 1226q0 23 13 45q26 47 47.5 107.5t90.5 60.5q102 0 102 -90q0 -64 -50.5 -121.5t-115.5 -57.5q-87 0 -87 56zM7 867q0 18 25 27q127 43 127 280q0 176 63 239q34 35 83 35t109 -46t99 -46t54 56q10 36 27 36q19 0 19 -26q0 -12 -4 -24q-68 -214 -192 -214
q-47 0 -96.5 30.5t-74.5 30.5q-42 0 -42 -71q0 -104 84 -166q17 -14 31 -31q17 -19 38 -19h176q93 0 93 216q0 176 63 239q34 35 83 35t109 -46t99 -46t54 56q10 36 27 36q19 0 19 -26q0 -12 -4 -24q-68 -214 -192 -214q-47 0 -96.5 30.5t-74.5 30.5q-42 0 -42 -71
q0 -104 84 -166q17 -14 31 -31q17 -19 38 -19h222q22 0 34 18l57 82q9 13 18 13t17 -11q80 -108 148 -142q62 -31 62 -42t-15 -17q-65 -26 -65 -117v-489q0 -70 58 -70q20 0 37 24t34 24q18 0 18 -20q0 -9 -16 -31q-77 -100 -120 -183q-9 -17 -23.5 -17t-22.5 16t-32 28
q-136 65 -136 211v549q0 14 -8 21q-17 16 -25 26q-12 18 -36 18h-171q-21 0 -21 -22q0 -318 -92 -1200q-4 -34 -18.5 -34t-18.5 34q-97 858 -97 1200q0 22 -21 22h-199q-21 0 -21 -22q0 -318 -92 -1200q-4 -34 -18.5 -34t-18.5 34q-97 858 -97 1200q0 22 -21 22h-85
q-32 0 -32 18z" />
    <glyph glyph-name="f_f_l" unicode="ffl" horiz-adv-x="1534" 
d="M7 867q0 18 25 27q127 43 127 279q0 177 63 240q34 35 83 35t109 -46t99 -46t54 63q10 29 27 29q19 0 19 -21q0 -12 -4 -25q-68 -218 -192 -218q-47 0 -96.5 30.5t-74.5 30.5q-42 0 -42 -72q0 -106 84 -169q17 -13 33 -29.5t37 -16.5h176q92 0 92 215q0 177 63 240
q34 35 83 35t109 -46t99 -46t54 63q10 29 27 29q19 0 19 -21q0 -11 -4 -23q-11 -41 -11 -80q36 -29 66 -76q1 -38 3 -38t3 15q134 223 368 223q38 0 38 -22.5t-38 -22.5q-203 0 -203 -254v-883q0 -72 69 -72q26 0 72 49q13 14 23 14q23 0 23 -21q0 -9 -12 -23
q-104 -122 -153 -219q-7 -14 -18 -14t-24 14q-128 137 -244 151q-16 2 -16 14t10 18q67 36 67 115v716q29 144 -9 212q-17 27 -28 52q-5 -8 -11 -8t-12 -7q-65 -73 -155 -73q-47 0 -96.5 30.5t-74.5 30.5q-42 0 -42 -72q0 -106 84 -169q17 -13 32 -29.5t35 -16.5h151
q37 0 37 -22v-65q0 -22 -24 -22h-125q-23 0 -23 -22q0 -318 -92 -1200q-4 -34 -18.5 -34t-18.5 34q-97 858 -97 1200q0 22 -21 22h-199q-21 0 -21 -22q0 -318 -92 -1200q-4 -34 -18.5 -34t-18.5 34q-97 858 -97 1200q0 22 -21 22h-85q-32 0 -32 18z" />
    <glyph glyph-name="longs_t" unicode="&#x17f;t" horiz-adv-x="1096" 
d="M511 863q0 14 24 30q284 190 368 421q11 29 27 29q19 0 19 -21q0 -11 -4 -23q-95 -280 -95 -326q0 -15 17 -15h165q22 0 22 -22v-65q0 -22 -22 -22h-161q-22 0 -22 -22v-561q0 -72 69 -72q26 0 72 49q13 14 23 14q23 0 23 -21q0 -9 -12 -23q-104 -122 -153 -219
q-7 -14 -18 -14t-24 14q-128 137 -243 151q-17 2 -17 14t11 18q66 36 66 115v535q0 22 -20 22h-89q-26 0 -26 14zM7 867q0 18 25 27q127 43 127 279q0 177 63 240q34 35 83 35t109 -46t99 -46t54 56q10 36 27 36q19 0 19 -26q0 -12 -4 -24q-68 -214 -192 -214
q-47 0 -96.5 30.5t-74.5 30.5q-42 0 -42 -72q0 -109 83.5 -173.5t83.5 -172.5q0 -318 -92 -1200q-4 -34 -18.5 -34t-18.5 34q-97 882 -97 1200q0 22 -21 22h-85q-32 0 -32 18z" />
    <glyph glyph-name="f_dotlessi" unicode="f&#x131;" horiz-adv-x="1011" 
d="M7 867q0 18 25 27q127 43 127 280q0 176 63 239q34 35 83 35t109 -46t99 -46t54 56q10 36 27 36q19 0 19 -26q0 -12 -4 -24q-68 -214 -192 -214q-47 0 -96.5 30.5t-74.5 30.5q-42 0 -42 -71q0 -104 84 -166q17 -14 33 -32t37 -18h222q21 0 33 18l57 82q9 13 17.5 13
t17.5 -11q80 -108 148 -142q62 -31 62 -42t-15 -17q-65 -26 -65 -117v-489q0 -70 58 -70q20 0 37 24t34 24q18 0 18 -20q0 -9 -16 -31q-77 -100 -120 -183q-9 -17 -23.5 -17t-22.5 16t-32 28q-136 65 -136 211v549q0 14 -8 21q-17 16 -25 26q-12 18 -36 18h-171
q-21 0 -21 -22q0 -318 -92 -1200q-4 -34 -18.5 -34t-18.5 34q-97 858 -97 1200q0 22 -21 22h-85q-32 0 -32 18z" />
    <glyph glyph-name="f_f_dotlessi" unicode="ff&#x131;" horiz-adv-x="1493" 
d="M7 867q0 18 25 27q127 43 127 280q0 176 63 239q34 35 83 35t109 -46t99 -46t54 56q10 36 27 36q19 0 19 -26q0 -12 -4 -24q-68 -214 -192 -214q-47 0 -96.5 30.5t-74.5 30.5q-42 0 -42 -71q0 -104 84 -166q17 -14 31 -31q17 -19 38 -19h176q93 0 93 216q0 176 63 239
q34 35 83 35t109 -46t99 -46t54 56q10 36 27 36q19 0 19 -26q0 -12 -4 -24q-68 -214 -192 -214q-47 0 -96.5 30.5t-74.5 30.5q-42 0 -42 -71q0 -104 84 -166q17 -14 31 -31q17 -19 38 -19h222q22 0 34 18l57 82q9 13 18 13t17 -11q80 -108 148 -142q62 -31 62 -42t-15 -17
q-65 -26 -65 -117v-489q0 -70 58 -70q20 0 37 24t34 24q18 0 18 -20q0 -9 -16 -31q-77 -100 -120 -183q-9 -17 -23.5 -17t-22.5 16t-32 28q-136 65 -136 211v549q0 14 -8 21q-17 16 -25 26q-12 18 -36 18h-171q-21 0 -21 -22q0 -318 -92 -1200q-4 -34 -18.5 -34t-18.5 34
q-97 858 -97 1200q0 22 -21 22h-199q-21 0 -21 -22q0 -318 -92 -1200q-4 -34 -18.5 -34t-18.5 34q-97 858 -97 1200q0 22 -21 22h-85q-32 0 -32 18z" />
    <glyph glyph-name=".notdef" horiz-adv-x="748" 
d="M68 0v1365h544v-1365h-544zM136 68h408v1229h-408v-1229z" />
    <glyph glyph-name=".null" horiz-adv-x="0" 
 />
    <glyph glyph-name="nonmarkingreturn" horiz-adv-x="682" 
 />
    <glyph glyph-name="notdef" horiz-adv-x="1208" 
d="M162 24v1400q0 24 23 24h874q24 0 24 -24v-1400q0 -24 -24 -24h-874q-23 0 -23 24zM365 68q0 -23 22 -23h470q23 0 23 23v1312q0 23 -23 23h-470q-22 0 -22 -23v-1312z" />
    <glyph glyph-name="notdef" horiz-adv-x="1208" 
d="M162 24v1400q0 24 23 24h874q24 0 24 -24v-1400q0 -24 -24 -24h-874q-23 0 -23 24zM365 68q0 -23 22 -23h470q23 0 23 23v1312q0 23 -23 23h-470q-22 0 -22 -23v-1312z" />
    <glyph glyph-name="space" unicode=" " horiz-adv-x="600" 
 />
    <glyph glyph-name="exclam" unicode="!" horiz-adv-x="504" 
d="M77 1272q0 10 16 18q105 55 141 141q8 17 18 17t18 -17q36 -86 141 -141q16 -9 16 -17.5t-13 -17.5q-16 -12 -28 -50q-85 -266 -116 -704q-2 -28 -18 -28t-18 28q-33 439 -116 704q-12 38 -28 50q-13 9 -13 17zM93 139q0 9 15 16q88 42 128 128q7 15 16 15t16 -15
q42 -88 128 -128q15 -7 15 -16t-15 -16q-88 -42 -128 -128q-7 -15 -16 -15t-16 15q-42 88 -128 128q-15 7 -15 16z" />
    <glyph glyph-name="quotedbl" unicode="&#x22;" horiz-adv-x="830" 
d="M477 1289.5q0 7.5 15 15.5q86 45 128 128q7 15 17 15t17 -15q38 -81 128 -128q15 -8 15 -15.5t-12 -16.5q-27 -20 -46 -58q-76 -153 -86 -288q-2 -26 -16 -26t-16 26q-10 139 -86 288q-21 42 -46 58q-12 9 -12 16.5zM93 1289.5q0 7.5 15 15.5q86 45 128 128q7 15 17 15
t17 -15q38 -81 128 -128q15 -8 15 -15.5t-12 -16.5q-27 -20 -46 -58q-76 -153 -86 -288q-2 -26 -16 -26t-16 26q-10 139 -86 288q-21 42 -46 58q-12 9 -12 16.5z" />
    <glyph glyph-name="numbersign" unicode="#" 
d="M100 246v63q0 23 23 23h585q23 0 23 23v341q0 23 -23 23h-585q-23 0 -23 23v63q0 23 23 23h585q23 0 23 23v575q0 23 23 23h63q23 0 23 -23v-575q0 -23 23 -23h321q23 0 23 23v575q0 23 23 23h63q23 0 23 -23v-575q0 -23 23 -23h585q23 0 23 -23v-63q0 -23 -23 -23h-585
q-23 0 -23 -23v-341q0 -23 23 -23h585q23 0 23 -23v-63q0 -23 -23 -23h-585q-23 0 -23 -23v-575q0 -23 -23 -23h-63q-23 0 -23 23v575q0 23 -23 23h-321q-23 0 -23 -23v-575q0 -23 -23 -23h-63q-23 0 -23 23v575q0 23 -23 23h-585q-23 0 -23 23zM840 355q0 -23 23 -23h321
q23 0 23 23v341q0 23 -23 23h-321q-23 0 -23 -23v-341z" />
    <glyph glyph-name="percent" unicode="%" horiz-adv-x="1311" 
d="M167 30l916 1430q7 11 15 11t16 -5l22 -14q12 -8 12 -15q0 -8 -5 -16l-916 -1430q-7 -11 -15 -11t-16 5l-22 14q-12 8 -12 15q0 8 5 16zM718 332q0 182 220 380q21 19 39.5 19t30 -17.5t31.5 -29.5q204 -123 204 -305t-220 -380q-21 -19 -39.5 -19t-30 17.5t-31.5 29.5
q-204 123 -204 305zM821 463q0 -150 229 -299q19 -13 36 -13t35.5 22.5t18.5 74.5q0 150 -229 299q-19 13 -36 13t-35.5 -22t-18.5 -75zM68 1072q0 182 220 380q21 19 39.5 19t30 -17.5t31.5 -29.5q204 -123 204 -305t-220 -380q-21 -19 -39.5 -19t-30 17.5t-31.5 29.5
q-204 123 -204 305zM171 1203q0 -150 229 -299q19 -13 36 -13t35.5 22.5t18.5 74.5q0 150 -229 299q-19 13 -36 13t-35.5 -22t-18.5 -75z" />
    <glyph glyph-name="ampersand" unicode="&#x26;" horiz-adv-x="1210" 
d="M68 390q0 198 198 324q11 5 11 10t-2 8q-60 133 -60 254q0 156 133 290q134 135 173 135q3 0 5 -22q44 -75 111 -137q115 -98 115 -205q0 -157 -240 -286q-9 -5 -9 -10.5t3 -11.5q33 -79 123 -222q12 -20 21 -20t14 21q51 237 194 237q35 0 97.5 -22t86.5 -22q34 0 46 26
t25 26q19 0 19 -26q0 -87 -42 -149q-54 -80 -124 -80q-37 0 -89.5 22t-73.5 22q-64 0 -98 -90q-4 -11 -4 -21q0 -20 15 -38q186 -220 283 -220q44 0 103 48q13 13 20 13q20 0 20 -20q0 -40 -174 -208q-37 -36 -58.5 -36t-46.5 18q-122 90 -205 171q-12 12 -21.5 12
t-14.5 -14q-48 -116 -87 -170q-12 -17 -19.5 -17t-19.5 14.5t-34 17.5q-183 27 -276 116q-118 116 -118 262zM202 509q0 -88 69 -169q112 -133 258 -133q26 0 45 12q10 8 10 16.5t-8 17.5q-166 184 -267 405q-5 13 -11 13t-13 -6q-83 -68 -83 -156zM333 1157q0 -98 130 -345
q7 -12 14 -12t11 2q109 66 109 157q0 65 -66 127q-106 102 -127 138q-8 14 -21.5 14t-27.5 -18q-22 -26 -22 -63z" />
    <glyph glyph-name="quotesingle" unicode="'" horiz-adv-x="446" 
d="M93 1289.5q0 7.5 15 15.5q86 45 128 128q7 15 17 15t17 -15q38 -81 128 -128q15 -8 15 -15.5t-12 -16.5q-27 -20 -46 -58q-76 -153 -86 -288q-2 -26 -16 -26t-16 26q-10 139 -86 288q-21 42 -46 58q-12 9 -12 16.5z" />
    <glyph glyph-name="parenleft" unicode="(" horiz-adv-x="508" 
d="M138 520.5q0 494.5 156 736.5q123 191 256 191q28 0 28 -21q0 -14 -37 -24q-93 -25 -126 -135q-74 -250 -74 -747.5t74 -747.5q33 -110 126 -135q37 -10 37 -24q0 -21 -28 -21q-133 0 -256 191q-156 242 -156 736.5z" />
    <glyph glyph-name="parenright" unicode=")" horiz-adv-x="508" 
d="M370 520.5q0 -494.5 -156 -736.5q-123 -191 -256 -191q-28 0 -28 21q0 14 37 24q93 25 126 135q74 250 74 747.5t-74 747.5q-33 110 -126 135q-37 10 -37 24q0 21 28 21q133 0 256 -191q156 -242 156 -736.5z" />
    <glyph glyph-name="asterisk" unicode="*" horiz-adv-x="966" 
d="M120 1365q0 10 19 11q66 2 131 67q6 8 14 8t12 -18q19 -105 145 -146q3 -1 8 -1q11 0 11 14q0 133 -95 184q-13 7 -13 14t12 13q81 40 106 106q5 13 13.5 13t13.5 -13q25 -66 106 -106q12 -6 12 -13t-13 -14q-95 -51 -95 -184q0 -14 11 -14q4 0 8 1q127 43 145 146
q4 18 12 18t14 -8q65 -65 131 -67q19 -1 19 -11q0 -7 -9 -14q-57 -50 -68 -135q-2 -15 -11 -15q-6 0 -15 9q-48 48 -120 48q-44 0 -85 -15q-11 -4 -11 -11q0 -4 6 -12q69 -93 160 -93q11 0 20.5 1t16.5 1q17 0 17 -9q0 -6 -5 -14q-38 -56 -38 -105q0 -21 3.5 -38t3.5 -22
q0 -17 -9 -17q-5 0 -13 7q-45 41 -100 41q-18 0 -34.5 -2.5t-20.5 -2.5q-12 0 -12 9q0 5 4 14q18 40 18 72q0 64 -49 132q-6 8 -12.5 8t-12.5 -8q-49 -68 -49 -132q0 -32 18 -72q4 -9 4 -14q0 -9 -12 -9q-4 0 -20.5 2.5t-34.5 2.5q-55 0 -100 -41q-8 -7 -13 -7q-9 0 -9 17
q0 5 3.5 22t3.5 38q0 49 -38 105q-5 8 -5 14q0 9 17 9q7 0 16.5 -1t20.5 -1q91 0 160 93q6 8 6 12q0 7 -11 11q-41 15 -85 15q-72 0 -120 -48q-9 -9 -15 -9q-9 0 -11 15q-11 85 -68 135q-9 7 -9 14z" />
    <glyph glyph-name="plus" unicode="+" 
d="M101 494v63q0 23 23 23h823q23 0 23 23v823q0 23 23 23h63q23 0 23 -23v-823q0 -23 23 -23h823q23 0 23 -23v-63q0 -23 -23 -23h-823q-23 0 -23 -23v-823q0 -23 -23 -23h-63q-23 0 -23 23v823q0 23 -23 23h-823q-23 0 -23 23z" />
    <glyph glyph-name="comma" unicode="," horiz-adv-x="444" 
d="M93 139.5q0 8.5 15 15.5q89 45 128 128q7 15 16 15t16 -15q43 -86 128 -128q10 -5 10 -13q0 -128 -138 -341q-32 -50 -50 -50q-14 0 -14 16q0 8 6 19q45 82 45 146q0 130 -147 193q-15 6 -15 14.5z" />
    <glyph glyph-name="hyphen" unicode="-" horiz-adv-x="712" 
d="M87 342q0 4 2 10l33 106q7 22 30 22h380q18 0 18 -12q0 -4 -2 -10l-33 -106q-7 -22 -30 -22h-380q-18 0 -18 12zM162 583q0 4 2 10l33 106q7 22 30 22h380q18 0 18 -12q0 -4 -2 -10l-33 -106q-7 -22 -30 -22h-380q-18 0 -18 12z" />
    <glyph glyph-name="hyphen" unicode="&#x2011;" horiz-adv-x="712" 
d="M87 342q0 4 2 10l33 106q7 22 30 22h380q18 0 18 -12q0 -4 -2 -10l-33 -106q-7 -22 -30 -22h-380q-18 0 -18 12zM162 583q0 4 2 10l33 106q7 22 30 22h380q18 0 18 -12q0 -4 -2 -10l-33 -106q-7 -22 -30 -22h-380q-18 0 -18 12z" />
    <glyph glyph-name="hyphen" unicode="&#x2010;" horiz-adv-x="712" 
d="M87 342q0 4 2 10l33 106q7 22 30 22h380q18 0 18 -12q0 -4 -2 -10l-33 -106q-7 -22 -30 -22h-380q-18 0 -18 12zM162 583q0 4 2 10l33 106q7 22 30 22h380q18 0 18 -12q0 -4 -2 -10l-33 -106q-7 -22 -30 -22h-380q-18 0 -18 12z" />
    <glyph glyph-name="hyphen" unicode="&#xad;" horiz-adv-x="712" 
d="M87 342q0 4 2 10l33 106q7 22 30 22h380q18 0 18 -12q0 -4 -2 -10l-33 -106q-7 -22 -30 -22h-380q-18 0 -18 12zM162 583q0 4 2 10l33 106q7 22 30 22h380q18 0 18 -12q0 -4 -2 -10l-33 -106q-7 -22 -30 -22h-380q-18 0 -18 12z" />
    <glyph glyph-name="period" unicode="." horiz-adv-x="444" 
d="M93 139q0 9 15 16q88 42 128 128q7 15 16 15t16 -15q42 -88 128 -128q15 -7 15 -16t-15 -16q-88 -42 -128 -128q-7 -15 -16 -15t-16 15q-42 88 -128 128q-15 7 -15 16z" />
    <glyph glyph-name="slash" unicode="/" horiz-adv-x="969" 
d="M921 1448q17 0 17 -11q0 -5 -4 -13l-697 -1400q-11 -24 -39 -24h-150q-18 0 -18 11q0 5 4 13l698 1400q12 24 39 24h150z" />
    <glyph glyph-name="zero" unicode="0" horiz-adv-x="1062" 
d="M85 714q0 467 232 658q92 76 209.5 76t209.5 -76q232 -191 232 -658t-232 -658q-92 -76 -209.5 -76t-209.5 76q-232 191 -232 658zM311 714q0 -377 81 -565q53 -124 134.5 -124t134.5 124q81 188 81 565t-81 565q-53 124 -134.5 124t-134.5 -124q-81 -188 -81 -565z" />
    <glyph glyph-name="one" unicode="1" horiz-adv-x="709" 
d="M72 1126q0 11 13 21l354 285q20 16 39.5 16t19.5 -18q0 -6 -3 -15q-7 -22 -7 -44v-1177q0 -149 149 -149q35 0 35 -22.5t-35 -22.5h-501q-35 0 -35 22.5t35 22.5q149 0 149 149v868q0 100 -59 100q-51 0 -110 -48q-12 -10 -22 -10q-22 0 -22 22z" />
    <glyph glyph-name="two" unicode="2" horiz-adv-x="1000" 
d="M55 1q0 94 147 234q441 438 441 836q0 168 -43 250t-141.5 82t-139 -70t-40.5 -158q0 -152 -117 -152q-98 0 -98 106t113 212.5t282 106.5q196 0 303 -114t107 -316q0 -363 -558 -766q-30 -22 -30 -35.5t44 -13.5h461q36 0 39 36l14 145q3 32 23 32q25 0 22 -37l-35 -362
q-1 -37 -8 -37q-17 0 -25 10t-21 10h-660q-19 0 -32 -10t-30.5 -10t-17.5 21z" />
    <glyph glyph-name="three" unicode="3" horiz-adv-x="1016" 
d="M78 299.5q0 105.5 92 105.5q111 0 111 -152q0 -95 43 -161.5t136 -66.5t154 44q108 78 108 272q0 384 -273 384q-44 0 -95 -10q-10 -2 -18 -2q-25 0 -25 19q0 13 34 26q311 125 311 312q0 160 -48.5 246.5t-147 86.5t-138.5 -70t-40 -158q0 -152 -110 -152q-93 0 -93 107
t110 212.5t284.5 105.5t280 -99.5t105.5 -267.5q0 -119 -120 -209q-10 -7 -10 -12.5t12 -10.5q207 -99 207 -348q0 -198 -136.5 -359.5t-350.5 -161.5q-164 0 -273.5 107t-109.5 212.5z" />
    <glyph glyph-name="four" unicode="4" horiz-adv-x="1001" 
d="M63 452v114q0 18 9 33l503 823q10 16 28 16h108q16 0 16 -17v-815q0 -23 24 -23h186q16 0 16 -17v-114q0 -17 -16 -17h-186q-24 0 -24 -23v-218q0 -149 149 -149q35 0 35 -22.5t-35 -22.5h-501q-35 0 -35 22.5t35 22.5q149 0 149 149v218q0 23 -23 23h-422q-16 0 -16 17z
M163 595q0 -12 24 -12h314q23 0 23 23v488q0 51 -14 51t-41 -42l-303 -496q-3 -7 -3 -12z" />
    <glyph glyph-name="five" unicode="5" horiz-adv-x="1032" 
d="M78 299q0 106 92 106q111 0 111 -152q0 -88 40.5 -158t139.5 -70q114 0 206.5 124.5t92.5 281t-92 242.5t-212.5 86t-264.5 -68q-16 -8 -33.5 -8t-17.5 22q0 7 2 19q60 247 60 537q0 70 -2 109t-2 52q0 26 19 26q13 0 28 -13q62 -50 322 -50q180 0 228 51q12 12 21 12
q19 0 19 -18.5t-34 -73.5q-107 -174 -323 -174q-108 0 -210 35q-3 1 -7 1q-15 0 -15 -24q0 -91 -18 -236q-1 -8 -1 -14q0 -18 18 -18q7 0 17 3q110 33 220 33q209 0 345 -134t136 -345.5t-142.5 -357t-359.5 -145.5q-166 0 -274.5 107.5t-108.5 211.5z" />
    <glyph glyph-name="six" unicode="6" horiz-adv-x="1046" 
d="M86 710.5q0 376.5 134.5 557t306 180.5t278 -109.5t106.5 -208.5q0 -107 -93 -107q-110 0 -110 152q0 88 -40.5 158t-139.5 70q-88 0 -143 -136q-73 -182 -73 -487q0 -17 6.5 -17t16.5 15q70 102 193 102q116 0 209 -64q188 -129 188 -386q0 -148 -87 -269
q-130 -181 -310 -181q-167 0 -304.5 177t-137.5 553.5zM339 430q0 -170 63 -300q50 -105 125.5 -105t125.5 105q63 130 63 298.5t-63 301.5q-50 105 -125.5 105t-125.5 -105q-63 -130 -63 -300z" />
    <glyph glyph-name="seven" unicode="7" horiz-adv-x="884" 
d="M37 1049l35 362q4 37 27 37q16 0 24 -10t21 -10h645q17 0 31 10t32 10q14 0 14 -17t-27 -109.5t-100 -187.5q-227 -297 -227 -715q0 -154 32 -324q5 -27 24.5 -40.5t19.5 -27.5q0 -27 -28 -27h-312q-28 0 -28 27q0 14 21 28.5t24 39.5q91 646 422 1081q13 18 13 29
q0 20 -42 20h-522q-37 0 -40 -36l-14 -145q-3 -32 -23 -32q-26 0 -22 37z" />
    <glyph glyph-name="eight" unicode="8" horiz-adv-x="1068" 
d="M85 347q0 250 237 382q19 11 19 22t-17 22q-197 140 -197 315.5t130.5 267.5t258.5 92q154 0 263 -62q135 -76 135 -253q0 -182 -188 -289q-16 -9 -16 -19.5t16 -22.5q257 -175 257 -374q0 -181 -133.5 -314.5t-310.5 -133.5q-205 0 -317 91q-137 111 -137 276zM241 391
q0 -195 108 -291q83 -75 190 -75q126 0 208 96q60 70 60 170q0 236 -350 403q-22 11 -42 11t-36 -13q-138 -106 -138 -301zM305 1171q0 -148 300 -296q16 -7 33 -7t33 12q112 84 112 243q0 135 -72 207.5t-195 72.5q-95 0 -153 -62t-58 -170z" />
    <glyph glyph-name="nine" unicode="9" horiz-adv-x="1016" 
d="M930 717.5q0 -376.5 -134.5 -557t-306 -180.5t-278 109.5t-106.5 208.5q0 107 93 107q110 0 110 -152q0 -88 40.5 -158t139.5 -70q88 0 143 136q73 182 73 487q0 17 -6.5 17t-16.5 -15q-70 -102 -193 -102q-116 0 -209 64q-188 129 -188 386q0 148 87 269
q130 181 310 181q167 0 304.5 -177t137.5 -553.5zM677 998q0 170 -63 300q-50 105 -125.5 105t-125.5 -105q-63 -130 -63 -298.5t63 -301.5q50 -105 125.5 -105t125.5 105q63 130 63 300z" />
    <glyph glyph-name="colon" unicode=":" horiz-adv-x="444" 
d="M93 853q0 9 15 16q88 42 128 128q7 15 16 15t16 -15q42 -88 128 -128q15 -7 15 -16t-15 -16q-88 -42 -128 -128q-7 -15 -16 -15t-16 15q-42 88 -128 128q-15 7 -15 16zM93 139q0 9 15 16q88 42 128 128q7 15 16 15t16 -15q42 -88 128 -128q15 -7 15 -16t-15 -16
q-88 -42 -128 -128q-7 -15 -16 -15t-16 15q-42 88 -128 128q-15 7 -15 16z" />
    <glyph glyph-name="semicolon" unicode=";" horiz-adv-x="444" 
d="M93 853q0 9 15 16q88 42 128 128q7 15 16 15t16 -15q42 -88 128 -128q15 -7 15 -16t-15 -16q-88 -42 -128 -128q-7 -15 -16 -15t-16 15q-42 88 -128 128q-15 7 -15 16zM93 139.5q0 8.5 15 15.5q89 45 128 128q7 15 16 15t16 -15q43 -86 128 -128q10 -5 10 -13
q0 -128 -138 -341q-32 -50 -50 -50q-14 0 -14 16q0 8 6 19q45 82 45 146q0 130 -147 193q-15 6 -15 14.5z" />
    <glyph glyph-name="less" unicode="&#x3c;" horiz-adv-x="1215" 
d="M206 525.5q0 7.5 7 15.5l712 712q8 8 16 8t16 -8l43 -43q8 -8 8 -15.5t-9 -16.5l-637 -637q-8 -8 -8 -16t8 -16l637 -638q7 -8 7 -15.5t-7 -15.5l-42 -42q-9 -8 -17 -8t-16 8l-711 712q-7 8 -7 15.5z" />
    <glyph glyph-name="equal" unicode="=" 
d="M101 653v63q0 23 23 23h1801q23 0 23 -23v-63q0 -23 -23 -23h-1801q-23 0 -23 23zM101 335v63q0 23 23 23h1801q23 0 23 -23v-63q0 -23 -23 -23h-1801q-23 0 -23 23z" />
    <glyph glyph-name="greater" unicode="&#x3e;" horiz-adv-x="1215" 
d="M1009 525.5q0 -7.5 -7 -15.5l-712 -712q-8 -8 -16 -8t-16 8l-43 43q-8 8 -8 15.5t9 16.5l637 637q8 8 8 16t-8 16l-637 638q-7 8 -7 15.5t7 15.5l42 42q9 8 17 8t16 -8l711 -712q7 -8 7 -15.5z" />
    <glyph glyph-name="question" unicode="?" horiz-adv-x="673" 
d="M64 1208q0 8 11 17l221 200q27 23 41 23q15 0 21 -22q6 -21 26 -31q280 -135 280 -355q0 -156 -150 -271t-160 -258q-2 -28 -20 -28t-18 65q0 115 72 217t73 216q0 114 -125 214q-62 50 -120.5 50t-109.5 -50q-10 -10 -22 -10q-20 0 -20 23zM177 139q0 9 15 16
q88 42 128 128q7 15 16 15t16 -15q42 -88 128 -128q15 -7 15 -16t-15 -16q-88 -42 -128 -128q-7 -15 -16 -15t-16 15q-42 88 -128 128q-15 7 -15 16z" />
    <glyph glyph-name="A" unicode="A" horiz-adv-x="1490" 
d="M-50 985q0 140 91 272q147 214 387.5 214t360.5 -132t120 -324q0 -289 -403 -608q-24 -19 -24 -32q0 -18 44 -24q79 -11 162.5 -107t167.5 -96q55 0 101 51q102 110 102 258v723q0 36 -31.5 36t-31.5 24.5t27 31.5q175 45 357 188q14 11 28 11q24 0 24 -24q0 -16 -17 -31
q-130 -111 -130 -232v-882q0 -152 80 -152q28 0 70 42q14 14 29 14q26 0 26 -26q0 -13 -12 -25l-118 -120q-54 -55 -118 -55q-151 0 -173 172q-5 39 -23.5 39t-47.5 -30q-175 -181 -321 -181q-122 0 -224 118.5t-172 118.5q-32 0 -64 -21q-14 -9 -28 -9q-24 0 -24 25
q0 16 19 29q499 324 499 647q0 161 -104 276q-139 155 -284 155t-207 -93q-51 -76 -51 -152q0 -120 179 -194q193 -81 193 -192q0 -75 -115 -191q-13 -13 -25 -13q-27 0 -27 29q0 12 14 25q27 25 27 50q0 57 -137 115q-196 83 -196 282z" />
    <glyph glyph-name="B" unicode="B" horiz-adv-x="1680" 
d="M-119 1033.5q0 175.5 146.5 306.5t370.5 131q228 0 359 -156q18 -22 31 -41t23.5 -19t19.5 18q102 198 333 198q226 0 315 -303q21 -76 55 -76q12 0 24 7t24 7q25 0 25 -28q-4 -17 -29 -31l-245 -133q-31 -17 -31 -29t39 -19q86 -16 149 -66q126 -100 126 -294.5
t-220 -388.5q-183 -162 -442.5 -162t-479.5 207q-102 96 -193 96q-44 0 -86 -22q-15 -8 -29 -8q-25 0 -25 25q0 17 26 31q495 269 495 528q0 183 -108.5 319.5t-260 136.5t-235 -91t-83.5 -197.5t68.5 -194.5t186.5 -88t181 55q17 15 30 15q28 0 28 -27q0 -13 -17 -28
q-90 -79 -244 -79t-240.5 112.5t-86.5 288zM548 438.5q0 -18.5 33 -33.5q58 -25 106 -71q277 -258 424.5 -258t248.5 84q76 63 76 177q0 158 -132 264q-166 134 -264 134q-34 0 -60 -14q-17 -9 -29 -9q-26 0 -26 26q0 16 24 32l330 179q19 10 19 22.5t-19 27.5
q-48 36 -68 107q-74 256 -171 256t-157 -116q-23 -42 -23 -75.5t9 -63.5q19 -74 19 -147q0 -219 -314 -481q-26 -22 -26 -40.5z" />
    <glyph glyph-name="C" unicode="C" horiz-adv-x="1295" 
d="M68 741q0 307 148.5 518.5t352.5 211.5q160 0 236 -133q8 -14 17.5 -14t17.5 7l133 117q26 23 64 23t108.5 -57.5t102.5 -57.5t44 18q14 20 27 20q30 0 30 -28q0 -10 -11 -24q-149 -189 -228 -189t-133.5 50.5t-98 50.5t-83.5 -32q-69 -57 -69 -131q0 -111 153 -260
q176 -183 176 -284q0 -134 -275 -307q-19 -12 -26 -12q-26 0 -26 27q0 17 29 35q72 45 72 113q0 102 -164.5 258.5t-164.5 276.5t124 219l130 104q11 9 11 19t-6 21q-52 83 -144 83q-156 0 -238.5 -159t-82.5 -326q0 -317 182 -552.5t491 -235.5q168 0 282 65q14 8 22 8
q27 0 27 -31q0 -13 -21 -26q-277 -172 -496 -172q-334 0 -523.5 239.5t-189.5 546.5z" />
    <glyph glyph-name="D" unicode="D" horiz-adv-x="1487" 
d="M-110 888q0 241 200.5 412t495.5 171q195 0 342 -65q499 -220 499 -702q0 -314 -200 -516q-231 -233 -470 -233q-160 0 -322 92t-267 92q-68 0 -107 -37q-17 -17 -34 -17q-25 0 -25 27q0 15 19 35q191 195 364 195q111 0 195 -60q227 -124 374.5 -124t232.5 82
q106 102 106 257q0 451 -475 660q-152 67 -338 67q-207 0 -358.5 -102t-151.5 -281q0 -123 89.5 -212.5t215.5 -89.5q56 0 99 14q16 5 27 5q26 0 26 -26q0 -20 -33 -31q-53 -18 -119 -18q-174 0 -279.5 114t-105.5 291zM362 912q0 144 222 257q13 6 24 6q26 0 26 -28
q0 -16 -23 -28q-46 -25 -46 -68q0 -73 143 -204.5t143 -252.5q0 -145 -222 -258q-13 -6 -24 -6q-26 0 -26 29q0 16 23 28q46 25 46 68q0 70 -143 204.5t-143 252.5z" />
    <glyph glyph-name="E" unicode="E" horiz-adv-x="1418" 
d="M68 740q0 306 148.5 518.5t352.5 212.5q160 0 236 -142q8 -13 17.5 -13t17.5 7l133 123q26 25 63.5 25t108 -62.5t102.5 -62.5t45 20t26 20q30 0 30 -27q0 -10 -11 -23q-157 -193 -224.5 -193t-130.5 51.5t-105 51.5t-82 -30q-69 -56 -69 -126q0 -106 161 -272
q9 -9 17 -9t16 13q93 170 186 170q52 0 98 -45q56 -54 85 -54q11 0 17 9q14 23 28 23q28 0 28 -28q0 -7 -8 -22q-97 -185 -216 -185q-54 0 -120 62q-32 33 -46 33q-22 0 -22 -28q0 -6 10 -18q95 -119 95 -192q0 -134 -275 -307q-19 -12 -26 -12q-26 0 -26 27q0 17 29 35
q72 45 72 113q0 101 -164.5 256.5t-164.5 276t124 220.5l130 97q12 10 12 20t-7 21q-57 90 -144 90q-156 0 -238.5 -160.5t-82.5 -329.5q0 -315 182 -549t491 -234q168 0 282 65q14 8 22 8q27 0 27 -31q0 -13 -21 -26q-277 -172 -496 -172q-334 0 -523.5 239.5t-189.5 545.5
z" />
    <glyph glyph-name="F" unicode="F" horiz-adv-x="1408" 
d="M-57 927.5q0 221.5 173.5 382.5t471.5 161q165 0 446 -120q148 -64 227 -64q33 0 52.5 11t33.5 11q24 0 24 -24q0 -16 -23 -28q-195 -113 -289 -210q-9 -9 -21.5 -9t-23.5 8q-310 222 -600 222q-174 0 -276.5 -121.5t-102.5 -260.5t87.5 -240t211.5 -101t180 32
q12 7 20 7q30 0 30 -25q0 -12 -20 -25q-72 -45 -217.5 -45t-264.5 108.5t-119 330zM79 375q0 26 27 26q68 0 148 -25q162 -51 162 -184q0 -49 -37 -119t-37 -131q0 -73 44 -118q60 -62 153 -62q172 0 264 110q65 81 65 220q0 199 -234 473q-117 136 -117 260q0 172 211 308
q17 12 30 12q24 0 24 -28q0 -15 -20 -31q-42 -34 -42 -88q0 -101 145 -274q28 -34 69 -84q10 -12 19.5 -12t19.5 9l180 219q10 11 20 11t18 -8l166 -142q9 -6 9 -13.5t-8 -17.5l-135 -166q-10 -12 -20 -12t-18 3l-123 105q-8 7 -18 7t-18 -10l-20 -25q-11 -13 -11 -25t6 -22
q93 -171 93 -342q0 -188 -92 -313q-135 -180 -463 -180q-220 0 -339 122q-84 87 -84 213q0 71 23 140t23 103q0 57 -49 62q-34 3 -34 29z" />
    <glyph glyph-name="G" unicode="G" horiz-adv-x="1576" 
d="M68 697q0 341 168 557.5t397 216.5q155 0 231 -139q11 -16 24.5 -16t26.5 7l235 136q18 12 31 12q23 0 36 -32q26 -62 74.5 -122.5t135.5 -100.5q29 -13 36.5 -31t-12.5 -32l-209 -151q-18 -13 -18 -23.5t11 -16.5q89 -16 173.5 -131.5t84.5 -295.5q0 -381 -424 -539
q-53 -20 -122 -30.5t-170 -10.5q-521 0 -671 478q-38 119 -38 264zM329 799q0 -174 41 -306q151 -482 480 -482q44 0 89.5 6.5t97.5 26.5q230 89 230 361q0 155 -97.5 289.5t-166.5 134.5q-20 0 -37 -12.5t-28 -12.5q-25 0 -25 26q0 16 36 31l247 177q13 9 13 20t-17 19
q-73 34 -125 93.5t-71 111.5q-6 16 -11 16t-9 -4l-130 -76q-115 -66 -123 -165q0 -108 131 -255.5t131 -276.5q0 -177 -269 -323q-16 -9 -30 -9q-24 0 -24 27q0 17 28 31q92 46 92 130q0 104 -131 250t-131 269q0 199 298 371q5 8 5 18t-5 19q-51 93 -154 93
q-149 0 -242 -136.5t-93 -461.5z" />
    <glyph glyph-name="H" unicode="H" horiz-adv-x="1369" 
d="M-137 171q0 16 18 34q123 122 225 122t192 -92t155 -92q38 0 64 26t26 65q0 126 -258 394q-137 142 -137 310.5t181 350.5t301 182t207 -89.5t127 -89.5q18 0 30 12t28 12q24 0 24 -24q0 -16 -15 -31q-123 -123 -229 -123t-187 83t-136.5 83t-108.5 -54t-53 -132
q0 -134 189 -327q10 -10 22 -10t24 9l376 269q17 12 35 12t36 -20q288 -317 288 -594q0 -513 -683 -699q-15 -4 -26 -4q-28 0 -28 26q0 22 40 32q471 117 471 541q0 254 -255 509q-13 13 -26 13t-27 -10l-169 -121q-13 -9 -13 -19t8 -21q115 -144 115 -296q0 -141 -132 -273
q-155 -155 -274.5 -155t-211.5 95t-134 95q-16 0 -27.5 -11.5t-26.5 -11.5q-25 0 -25 24z" />
    <glyph glyph-name="J" unicode="I" horiz-adv-x="1275" 
d="M-58 1q0 11 16 25q150 131 259.5 131t260 -161.5t290.5 -161.5t204 60.5t64 154.5q0 154 -193 401q-96 123 -96 272.5t165 297.5q19 17 19 29.5t-39 12.5q-121 0 -230.5 103t-236.5 103t-226 -86.5t-99 -227.5t91 -237t210.5 -96t181.5 55q17 15 30 15q28 0 28 -27
q0 -13 -17 -28q-91 -80 -251.5 -80t-268.5 117.5t-108 315t156 340t368 142.5t360.5 -135.5t236.5 -135.5q30 0 50 14q11 8 25 8q24 0 24 -28q0 -14 -6 -26q-238 -139 -238 -291t133.5 -310t133.5 -318q0 -207 -229 -402q-166 -141 -398.5 -141t-372 147t-203.5 147
q-22 0 -38 -14t-27 -14q-29 0 -29 29z" />
    <glyph glyph-name="J" unicode="J" horiz-adv-x="1275" 
d="M-58 1q0 11 16 25q150 131 259.5 131t260 -161.5t290.5 -161.5t204 60.5t64 154.5q0 154 -193 401q-96 123 -96 272.5t165 297.5q19 17 19 29.5t-39 12.5q-121 0 -230.5 103t-236.5 103t-226 -86.5t-99 -227.5t91 -237t210.5 -96t181.5 55q17 15 30 15q28 0 28 -27
q0 -13 -17 -28q-91 -80 -251.5 -80t-268.5 117.5t-108 315t156 340t368 142.5t360.5 -135.5t236.5 -135.5q30 0 50 14q11 8 25 8q24 0 24 -28q0 -14 -6 -26q-238 -139 -238 -291t133.5 -310t133.5 -318q0 -207 -229 -402q-166 -141 -398.5 -141t-372 147t-203.5 147
q-22 0 -38 -14t-27 -14q-29 0 -29 29z" />
    <glyph glyph-name="K" unicode="K" horiz-adv-x="1505" 
d="M-112 155q0 15 16 28q144 118 247 118q74 0 147 -82t140 -82q28 0 51 19t23 54q0 104 -169.5 325.5t-169.5 414.5t202.5 357t464.5 164t440 -159.5t178 -368.5t-242 -350q-12 -7 -25 -7q-25 0 -25 26q0 17 23 30q157 90 157 301t-159.5 341.5t-346.5 130.5t-314 -99
t-127 -253q0 -64 25 -133q17 -46 30 -46t23 47q63 296 321 296q251 0 364 -278q23 -56 50 -56q9 0 20.5 7t25.5 7q24 0 24 -25q0 -17 -24 -32l-238 -146q-22 -13 -22 -25q0 -13 26 -23q32 -12 59 -48q45 -60 90 -202.5t95.5 -198.5t87.5 -56q17 0 30.5 9.5t25.5 9.5
q25 0 25 -28q0 -14 -17 -26l-152 -104q-47 -32 -91 -32q-70 0 -134.5 70.5t-112.5 221.5t-92 209q-45 58 -78 58q-9 0 -20 -6.5t-22 -6.5q-26 0 -26 27q0 16 20 28l266 163q21 13 21 25.5t-25 23.5q-51 23 -79 91q-82 200 -203 200q-128 0 -160 -164q-6 -31 -6 -63
q0 -104 70 -212q83 -126 83 -265t-157.5 -269.5t-278.5 -130.5q-96 0 -170.5 83.5t-113.5 83.5q-11 0 -22 -9t-24 -9q-25 0 -25 26z" />
    <glyph glyph-name="L" unicode="L" horiz-adv-x="1095" 
d="M-32 222q0 16 19 31q132 103 195 170.5t63 131t-104.5 202.5t-104.5 294t145.5 287.5t349 132.5t353 -109.5t149.5 -273.5t-110 -249.5t-243 -85.5q-93 0 -140 26q-20 10 -20 22q0 29 24 29q13 0 24 -6q26 -15 86 -15t118 66.5t58 213t-85 236.5t-215 90t-199 -82.5
t-69 -192.5t98.5 -233.5t98.5 -221.5t-144 -226q-24 -21 -24 -36t30 -23q53 -13 97 -52q217 -190 353.5 -190t239.5 121q15 19 31 19q25 0 25 -28q0 -15 -11 -30q-217 -285 -420.5 -285t-407.5 206q-77 72 -127 72t-80 -25q-14 -10 -28 -10q-25 0 -25 24z" />
    <glyph glyph-name="M" unicode="M" horiz-adv-x="2109" 
d="M-57 1024q0 183 128 315t341.5 132t344.5 -154q10 -14 19 -14t19 14q129 154 288.5 154t264.5 -136q15 -22 27.5 -22t23.5 23q76 135 254 135q225 0 293 -286q38 -151 82 -151q7 0 15.5 5t16.5 5q26 0 26 -29q0 -13 -19 -24q-304 -179 -304 -435q0 -141 58.5 -243.5
t115.5 -102.5q24 0 37.5 13t23.5 13q27 0 27 -29q0 -13 -12 -24l-187 -181q-23 -22 -46 -22t-49 20q-171 125 -171 398t253 499q17 13 17 26.5t-26 24.5q-86 37 -122 184q-51 230 -156 230q-51 0 -76 -53q-21 -42 -21 -92q0 -31 12 -67q29 -94 29 -208q0 -390 -235 -738
q-151 -224 -262 -224q-53 0 -103 59.5t-82 59.5q-23 0 -35 -20.5t-27 -20.5q-29 0 -29 25q0 11 6 21q122 198 228 198q65 0 114 -55.5t80 -55.5t57 40q85 130 85 420q0 295 -140 520q-90 144 -199 144q-61 0 -93 -41q-14 -18 -14 -32t9 -28q94 -150 94 -393
q0 -317 -264 -654q-147 -187 -251 -187t-181 126q-57 82 -99 82q-18 0 -31 -16t-27 -16q-27 0 -27 26q0 13 11 27q124 158 224 158t177 -120q56 -87 98 -87q30 0 61 37q133 160 133 441.5t-189 493.5q-121 136 -268.5 136t-219.5 -65.5t-72 -178.5q0 -183 173 -183
q35 0 77 8t77 8q197 0 197 -260q0 -39 -28 -39t-28 36q0 60 -93 60q-36 0 -85 -8t-88 -8q-258 0 -258 386z" />
    <glyph glyph-name="N" unicode="N" horiz-adv-x="1640" 
d="M-57 1024q0 183 127 315t349 132t380 -212q20 -25 36 -25t33 25q134 212 283 212q251 0 319 -286q38 -151 82 -151q7 0 15.5 5t16.5 5q26 0 26 -29q0 -13 -19 -24q-304 -179 -304 -435q0 -141 58.5 -243.5t115.5 -102.5q24 0 37.5 13t23.5 13q27 0 27 -29q0 -13 -12 -24
l-187 -181q-23 -22 -46 -22t-49 19q-171 122 -171 397t253 501q17 13 17 26.5t-26 24.5q-87 38 -122 184q-43 189 -140 189t-151 -87q-30 -50 -30 -93.5t10 -78.5q29 -101 29 -241q0 -317 -264 -654q-147 -187 -251 -187t-181 120q-57 88 -99 88q-18 0 -31 -16t-27 -16
q-27 0 -27 26q0 13 11 27q128 158 226.5 158t174.5 -120q56 -87 98 -87q30 0 61 37q133 160 133 441.5t-189 493.5q-121 136 -268.5 136t-219.5 -65.5t-72 -178.5q0 -183 173 -183q35 0 77 8t77 8q197 0 197 -260q0 -39 -28 -39t-28 36q0 60 -93 60q-36 0 -85 -8t-88 -8
q-258 0 -258 386z" />
    <glyph glyph-name="O" unicode="O" horiz-adv-x="1497" 
d="M15 203q0 14 16 29q141 133 263.5 133t229.5 -93q214 -185 372 -185q162 0 267.5 99.5t105.5 309.5q0 471 -442 663q-149 65 -263 65q-71 0 -138 -31q-172 -83 -172 -224q0 -95 168 -160q226 -89 226 -223q0 -91 -112 -210q-15 -16 -32 -16q-27 0 -27 24q0 13 11.5 25.5
t11.5 24.5q0 54 -191 127q-258 102 -258 310.5t349 371.5q162 74 246 195q23 33 54 33q89 0 249 -69q475 -206 475 -725q0 -322 -237 -546q-186 -176 -477 -176q-224 0 -376.5 125t-224.5 125q-24 0 -38.5 -13t-28.5 -13q-27 0 -27 24z" />
    <glyph glyph-name="P" unicode="P" horiz-adv-x="1602" 
d="M-191 1007q0 144 71 257q130 207 403 207t401 -260q7 -16 15.5 -16t14.5 19l433 252q18 5 28 5t17 -11t7 -23t-19.5 -32t-19.5 -46q0 -92 104 -195q279 -261 279 -526q0 -207 -161 -417q-204 -266 -402 -266q-112 0 -216 41q-8 3 -15 3q-13 0 -20 -19q-64 -228 -200 -369
q-18 -18 -32 -18q-26 0 -26 25q0 13 16 31q102 111 102 414q0 27 -23 43q-84 56 -181 56q-69 0 -107 -46q-15 -18 -29 -18q-27 0 -27 24q0 14 12 28q166 215 319 215q27 0 27 29q0 421 -150 708q-87 166 -226.5 166t-223 -72t-83.5 -191.5t75.5 -201.5t187 -82t164.5 29
q11 6 24 6q24 0 24 -26q0 -17 -22 -29q-86 -46 -218 -46t-227.5 104t-95.5 248zM723 1127q0 -8 2 -17q58 -178 58 -715q-2 -40 -2 -78q0 -26 23 -41q199 -118 315 -118q134 0 219 107q62 79 62 173q0 231 -346 551q-118 107 -151 223q-6 17 -15 17t-18 11l-135 -79
q-12 -14 -12 -34z" />
    <glyph glyph-name="Q" unicode="Q" horiz-adv-x="1534" 
d="M15 203q0 14 16 29q141 133 263.5 133t229.5 -93q214 -185 372 -185q76 0 139 22q16 5 16 14.5t-9 19.5q-64 68 -114 68q-34 0 -53 -23t-35 -23q-25 0 -25 24q0 14 12 28q115 142 226 142q89 0 150 -68q9 -10 17.5 -10t15.5 15q33 82 33 200q0 471 -442 663
q-149 65 -263 65q-74 0 -138 -31q-172 -83 -172 -224q0 -95 168 -160q226 -89 226 -223q0 -91 -112 -210q-15 -16 -32 -16q-27 0 -27 24q0 13 11.5 25.5t11.5 24.5q0 54 -191 127q-258 102 -258 310.5t349 371.5q162 74 246 195q23 33 54 33q89 0 249 -69q475 -206 475 -725
q0 -246 -140 -437q-8 -11 -8 -22t10 -21q66 -69 115 -69q34 0 53 23.5t35 23.5q25 0 25 -24q0 -14 -12 -29q-115 -142 -225 -142q-78 0 -148 67q-12 12 -22.5 12t-20.5 -6q-158 -98 -380 -98t-374 125t-223 125q-24 0 -38.5 -13t-28.5 -13q-27 0 -27 24z" />
    <glyph glyph-name="R" unicode="R" horiz-adv-x="1670" 
d="M-66 1037.5q0 177.5 142 305.5t358 128t375 -197q17 -23 34 -23t32 29q100 191 294 191q241 0 314 -334q12 -60 35 -60q7 0 16 6.5t22 6.5q25 0 25 -28q0 -17 -21 -32l-288 -193q-13 -9 -13 -20q0 -9 22 -22q36 -22 59 -66q43 -84 71.5 -273t69.5 -247.5t84 -58.5
q16 0 30.5 10t26.5 10q25 0 25 -28q0 -14 -17 -26l-152 -104q-47 -32 -89 -32q-79 0 -144 93t-95 291.5t-59 254.5t-51 56q-10 0 -19 -6t-22 -6q-26 0 -26 26q0 15 22 30l296 198q17 12 17 23.5t-21 23.5q-51 28 -73 130q-60 268 -153 268q-79 0 -136 -110q-26 -49 -26 -111
q0 -40 10 -82q25 -107 25 -250q0 -314 -264 -645q-147 -184 -251 -184t-181 120q-57 88 -99 88q-18 0 -31 -16t-27 -16q-27 0 -27 26q0 13 11 27q125 158 225 158t176 -120q56 -87 98 -87q30 0 61 37q133 160 133 436.5t-189 504.5q-108 130 -247.5 130t-214.5 -89.5
t-75 -198t68 -196t187 -87.5t181 55q17 15 30 15q28 0 28 -27q0 -13 -17 -28q-90 -79 -244.5 -79t-242.5 113.5t-88 291z" />
    <glyph glyph-name="S" unicode="S" horiz-adv-x="1591" 
d="M68 636.5q0 320.5 281 565.5q309 269 507 269q98 0 219.5 -80t216.5 -80t141 47q22 21 39 21q22 0 22 -23q0 -16 -20 -39q-182 -209 -325 -209t-253.5 80t-242.5 80t-257 -114t-125 -380t207.5 -429.5t460.5 -163.5t399.5 107.5t146.5 235.5t-70 184t-149.5 56t-207 -116
t-268.5 -116t-301 220q-13 18 -13 31q0 27 25 27q15 0 32 -21q44 -54 122.5 -54t205.5 116t279 116t276.5 -115t124.5 -323.5t-213 -391t-503.5 -182.5t-523.5 180.5t-233 501z" />
    <glyph glyph-name="T" unicode="T" horiz-adv-x="1318" 
d="M-52 1009.5q0 180.5 163 321t437.5 140.5t555.5 -237q97 -82 162 -82q38 0 63 29q16 18 31 18q27 0 27 -25q0 -13 -13 -27q-163 -176 -292 -176q-87 0 -165 66q-302 252 -506 252q-195 0 -283.5 -89t-88.5 -209.5t68.5 -194.5t149 -74t125.5 26q12 7 25 7q27 0 27 -27
q0 -16 -20 -27q-80 -46 -186.5 -46t-193 87t-86.5 267.5zM14 325q0 14 15 31q135 154 250 154t225 -119q290 -327 503 -327q123 0 218 108q16 18 30 18q26 0 26 -24q0 -12 -12 -26q-163 -185 -449 -185t-541 274q-99 113 -160 113q-28 0 -46 -20.5t-33 -20.5q-26 0 -26 24z
M467 854q0 156 222 257q13 6 24 6q26 0 26 -28q0 -16 -23 -28q-46 -25 -46 -68q0 -73 143 -204.5t143 -252.5q0 -157 -222 -259q-13 -6 -24 -6q-26 0 -26 29q0 16 23 29q46 25 46 68q0 70 -143 204.5t-143 252.5z" />
    <glyph glyph-name="V" unicode="U" horiz-adv-x="1591" 
d="M-89 1037q0 177 145 305.5t348 128.5t370 -175q25 -23 44.5 -23t35.5 24q99 174 272.5 174t242.5 -195q49 -139 101 -139q12 0 24 7.5t23 7.5q28 0 28 -29q0 -15 -21 -28q-220 -136 -220 -242.5t116 -204t116 -236.5t-213 -324q-152 -133 -404.5 -133t-423 169.5
t-243.5 169.5t-119 -40q-16 -14 -27 -14q-29 0 -29 29q0 11 16 25q197 172 318 172q30 0 49.5 -5.5t29.5 -5.5q23 0 43 18q134 119 134 327t-116.5 338t-247.5 130t-214.5 -89.5t-83.5 -197.5t68.5 -196t187 -88t180.5 55q17 15 30 15q28 0 28 -27q0 -13 -17 -28
q-90 -79 -244 -79t-240.5 113.5t-86.5 290.5zM569 420.5q0 -8.5 12 -17.5q63 -43 129 -107q231 -232 396 -232q110 0 179 67q48 45 48 136.5t-117.5 195.5t-117.5 237t165 279q16 15 16 26t-24 18q-98 29 -147 177q-44 126 -105.5 126t-105 -69.5t-43.5 -133.5q0 -17 2 -31
q14 -79 14 -151q0 -248 -292 -504q-9 -8 -9 -16.5z" />
    <glyph glyph-name="V" unicode="V" horiz-adv-x="1591" 
d="M-89 1037q0 177 145 305.5t348 128.5t370 -175q25 -23 44.5 -23t35.5 24q99 174 272.5 174t242.5 -195q49 -139 101 -139q12 0 24 7.5t23 7.5q28 0 28 -29q0 -15 -21 -28q-220 -136 -220 -242.5t116 -204t116 -236.5t-213 -324q-152 -133 -404.5 -133t-423 169.5
t-243.5 169.5t-119 -40q-16 -14 -27 -14q-29 0 -29 29q0 11 16 25q197 172 318 172q30 0 49.5 -5.5t29.5 -5.5q23 0 43 18q134 119 134 327t-116.5 338t-247.5 130t-214.5 -89.5t-83.5 -197.5t68.5 -196t187 -88t180.5 55q17 15 30 15q28 0 28 -27q0 -13 -17 -28
q-90 -79 -244 -79t-240.5 113.5t-86.5 290.5zM569 420.5q0 -8.5 12 -17.5q63 -43 129 -107q231 -232 396 -232q110 0 179 67q48 45 48 136.5t-117.5 195.5t-117.5 237t165 279q16 15 16 26t-24 18q-98 29 -147 177q-44 126 -105.5 126t-105 -69.5t-43.5 -133.5q0 -17 2 -31
q14 -79 14 -151q0 -248 -292 -504q-9 -8 -9 -16.5z" />
    <glyph glyph-name="W" unicode="W" horiz-adv-x="2139" 
d="M-89 1023.5q0 179.5 145 313.5t349 134t344 -149q11 -11 19 -11t16 12q80 148 180 148q101 0 183 -151q8 -14 17.5 -14t20.5 10q25 23 53 47q120 108 285 108q296 0 387 -246q29 -82 70 -82q13 0 26.5 7.5t25.5 7.5q25 0 25 -28q0 -15 -25 -30q-183 -108 -183 -233
q0 -91 111 -191.5t111 -225.5q0 -150 -162 -322.5t-339 -172.5q-148 0 -302 126q-39 32 -78 32t-79 -30q-171 -128 -308 -128q-181 0 -310.5 174.5t-239.5 174.5q-63 0 -121 -51q-14 -12 -28 -12q-26 0 -26 26q0 15 17 29q193 159 341 159q77 0 104 25q127 120 127 319
q0 209 -116.5 339t-247.5 130t-214.5 -89.5t-83.5 -201.5t68 -196t187 -84t181 55q17 15 30 15q28 0 28 -27q0 -13 -17 -28q-90 -79 -244 -79t-240.5 105.5t-86.5 285zM583 427.5q0 -13.5 19 -26.5q53 -36 112 -114q127 -169 265 -169q92 0 177 76.5t85 180.5
q0 135 -135 326q-94 134 -94 265q0 129 90 257q11 16 11 30t-8 26q-46 63 -141 63q-93 0 -141 -67q-9 -13 -9 -30t8 -35q48 -113 48 -271q0 -235 -273 -485q-14 -13 -14 -26.5zM1208 1165q0 -132 128 -317q95 -134 95 -269q0 -106 -63 -219q-5 -9 -5 -17q0 -16 22 -23
q35 -11 68 -39q204 -167 305 -167q60 0 103 44.5t43 99.5q0 100 -137 223.5t-137 249.5q0 117 139 249q15 14 15 25.5t-28 18.5q-69 19 -100 106q-95 256 -228 256q-82 0 -151 -62t-69 -159z" />
    <glyph glyph-name="X" unicode="X" horiz-adv-x="1224" 
d="M-81 1083.5q0 184.5 123 286t297 101.5q217 0 331 -118q53 -55 72 -129q9 -36 25 -36q14 0 42 60q108 223 221 223q58 0 111 -62q18 -21 38 -21t36 37q10 23 28 23q28 0 28 -23q0 -9 -6 -22q-100 -218 -216 -218q-59 0 -112 62q-18 21 -37 21t-38 -40q-77 -163 -77 -296
q0 -30 28 -30h272q22 0 22 -11q0 -8 -9 -19l-110 -143q-23 -30 -59 -30h-112q-25 0 -25 -32q0 -241 137 -393q90 -100 157 -100q41 0 75 32q14 15 29 15q25 0 25 -27q0 -13 -15 -26l-143 -132q-60 -56 -128 -56q-92 0 -192 105q-78 84 -124 219q-13 41 -26.5 41t-28.5 -42
q-23 -58 -54 -114q-116 -209 -235 -209q-64 0 -131 62q-49 46 -79 46t-46 -31q-10 -20 -28 -20q-28 0 -28 23q0 11 4 18q119 213 234 213q65 0 133 -63q48 -45 78.5 -45t47.5 33q112 216 112 454q0 29 -28 29h-91q-22 0 -22 9q0 7 9 17l101 133q19 25 19 58q0 8 -1 15
q-26 174 -83 234q-97 103 -212.5 103t-177.5 -60.5t-62 -177.5t61.5 -196t140 -79t125.5 25q13 7 24 7q26 0 26 -26q0 -15 -21 -27q-60 -35 -176.5 -35t-197.5 100t-81 284.5z" />
    <glyph glyph-name="Y" unicode="Y" horiz-adv-x="1517" 
d="M-134 1035q0 178 142 307t356.5 129t372.5 -198q11 -13 21 -13t18 14q125 197 314 197q206 0 274 -277q37 -148 84 -148q7 0 16 4t18 4q24 0 24 -30q0 -16 -22 -26q-236 -113 -236 -274q0 -79 55 -169q100 -159 100 -337t-178.5 -369.5t-506.5 -191.5t-527 239
q-15 18 -15 29q0 23 28 28q11 2 27 -18q163 -204 423.5 -204t391.5 130t131 275t-100 300q-55 84 -55 166q0 161 214 318q15 11 15 22.5t-22 23.5q-79 42 -109 169q-50 188 -165 188q-76 0 -131 -83q-22 -33 -22 -65q0 -20 7 -40q29 -83 29 -168q0 -262 -306 -612
q-15 -16 -15 -28q0 -20 40.5 -29t90.5 -58q59 -57 98 -57q31 0 46.5 24t31.5 24q26 0 26 -26q0 -12 -9 -27q-117 -198 -244 -198q-82 0 -154.5 75.5t-114.5 75.5q-29 0 -46.5 -16.5t-31.5 -16.5q-25 0 -25 26q0 17 18 34q392 342 392 636q0 175 -128 335q-111 139 -252 139
t-216 -92t-75 -199t68.5 -193.5t187 -86.5t180.5 55q17 15 30 15q28 0 28 -27q0 -13 -17 -28q-90 -79 -244 -79t-242.5 112t-88.5 290z" />
    <glyph glyph-name="Z" unicode="Z" horiz-adv-x="1205" 
d="M-128 1q0 11 16 25q145 131 257 131t265 -161t280 -161q95 0 147 35q106 74 106 261q0 149 -136.5 296t-291.5 147q-64 0 -124 -20q-9 -3 -16 -3q-29 0 -29 30q0 17 25 26q473 157 473 379q0 77 -54 143q-117 139 -293 139t-255 -79t-79 -166.5t46 -151t133 -63.5
q37 0 37 -28t-38 -28q-127 0 -204 74.5t-77 227t142.5 285t393.5 132.5t386 -150q88 -98 88 -237q0 -189 -234 -339q-14 -9 -14 -16.5t18 -12.5q90 -26 198 -136.5t108 -322.5q0 -246 -273 -432q-175 -119 -350 -119q-213 0 -351.5 147t-205.5 147q-22 0 -37.5 -14
t-27.5 -14q-29 0 -29 29z" />
    <glyph glyph-name="bracketleft" unicode="[" horiz-adv-x="508" 
d="M162 -362v1786q0 24 24 24h294q24 0 24 -22.5t-23 -22.5h-93q-23 0 -23 -23v-1698q0 -23 23 -23h93q23 0 23 -22.5t-24 -22.5h-294q-24 0 -24 24z" />
    <glyph glyph-name="bracketright" unicode="]" horiz-adv-x="508" 
d="M350 1424v-1786q0 -24 -24 -24h-294q-24 0 -24 22.5t23 22.5h93q23 0 23 23v1698q0 23 -23 23h-93q-23 0 -23 22.5t24 22.5h294q24 0 24 -24z" />
    <glyph glyph-name="underscore" unicode="_" horiz-adv-x="934" 
d="M-22 -320q0 22 22 22h934q22 0 22 -22v-65q0 -22 -22 -22h-934q-22 0 -22 22v65z" />
    <glyph glyph-name="a" unicode="a" horiz-adv-x="935" 
d="M68 456q0 243 221 391q123 89 188 208q9 16 22.5 16t27.5 -17q83 -100 312 -200q21 -9 21 -19.5t-25 -24.5q-46 -27 -46 -80v-477q0 -70 58 -70q20 0 37 24t34 24q18 0 18 -20q0 -9 -16 -31q-82 -114 -120 -183q-9 -17 -23.5 -17t-22.5 16t-32 28q-94 45 -124 131
q-3 8 -14 8t-25 4l-231 -170q-15 -17 -23 -17t-8 17q0 27 -58 75q-171 141 -171 384zM271 563q0 -225 113 -358q41 -49 70 -49t46 24l60 43q26 8 26 21v498q0 12 -12 18q-65 33 -148 104q-13 11 -25 11t-22 -14q-108 -143 -108 -298z" />
    <glyph glyph-name="b" unicode="b" horiz-adv-x="935" 
d="M35 1349q0 19 21 19q23 0 103 -123q11 -17 21.5 -17t19.5 15q123 205 368 205q38 0 38 -22.5t-38 -22.5q-203 0 -203 -254v-253q0 -13 5 -13t10 4l227 167q23 17 35.5 17t12.5 -18q0 -28 58 -79q171 -147 171 -387t-221 -386q-123 -88 -189 -205q-9 -16 -22.5 -16
t-27.5 17q-83 99 -312 197q-21 9 -21 19.5t25 24.5q46 26 46 79v691q0 198 -116 314q-11 11 -11 27zM365 307q0 -12 12 -18q65 -33 149 -104q13 -11 25 -11t22 13q108 142 108 295q0 223 -121 355q-44 48 -75.5 48t-48.5 -13l-59 -43q-12 -9 -12 -22v-500z" />
    <glyph glyph-name="c" unicode="c" horiz-adv-x="762" 
d="M68 554q0 324 267 438q140 60 204 60q7 0 10 -7l103 -259q16 -5 16 -9q0 -13 -16 -18l-158 -56q-5 -2 -11 -2q-13 0 -20 11l-91 229q-4 10 -8 10t-7 -1q-86 -39 -86 -302q0 -196 54 -296q92 -169 220 -169q52 0 132 40q14 7 20 7q21 0 21 -25q0 -12 -18 -22
q-148 -87 -291 -189q-19 -14 -30 -14t-17.5 25.5t-29.5 41.5q-264 163 -264 507z" />
    <glyph glyph-name="d" unicode="d" horiz-adv-x="944" 
d="M91 213q0 10 25 25q46 26 46 79v486q0 25 22 25q90 0 150 45l48 37q9 7 9 12.5t-11 11.5q-272 137 -272 273t180 232q17 9 26 9q19 0 19 -22q0 -14 -23 -26q-55 -30 -55 -82q0 -94 249 -221q372 -191 372 -550q0 -249 -233 -410q-137 -94 -162 -132q-16 -25 -35 -25
t-35 17q-113 117 -299 197q-21 9 -21 19zM365 311q0 -22 18 -33q71 -39 139 -104q22 -21 45 -21t48 20q119 98 119 269q0 309 -271 447q-9 5 -19 5t-19 -6l-41 -32q-19 -14 -19 -39v-506z" />
    <glyph glyph-name="e" unicode="e" horiz-adv-x="762" 
d="M68 554q0 323 274 438q144 60 210 60q-2 0 -3 -7l142 -357q14 -6 14 -12q0 -13 -28 -20l-390 -155q-4 -7 -4 -19q0 -5 1 -10q13 -72 41 -123q91 -166 219 -166q51 0 130 40q14 7 20 7q21 0 21 -24q0 -11 -18 -21q-146 -88 -289 -191q-19 -14 -29.5 -14t-17 25.5
t-29.5 41.5q-264 163 -264 507zM271 648q0 -67 2 -88q1 -9 3 -9t5 -4l194 77q27 6 27 18q0 5 -16 12l-114 287q-4 10 -8.5 10t-6.5 -1q-86 -37 -86 -302z" />
    <glyph glyph-name="f" unicode="f" horiz-adv-x="586" 
d="M7 867q0 18 25 27q127 43 127 279q0 177 63 240q34 35 83 35t109 -46t99 -46t54 56q10 36 27 36q19 0 19 -26q0 -12 -4 -24q-68 -214 -192 -214q-47 0 -96.5 30.5t-74.5 30.5q-42 0 -42 -72q0 -106 84 -169q17 -13 31 -29.5t36 -16.5h151q37 0 37 -22v-65q0 -22 -24 -22
h-125q-23 0 -23 -22q0 -318 -92 -1200q-4 -34 -18.5 -34t-18.5 34q-97 882 -97 1200q0 22 -21 22h-85q-32 0 -32 18z" />
    <glyph glyph-name="g" unicode="g" horiz-adv-x="957" 
d="M68 464q0 240 221 386q123 88 188 205q9 16 21 16q20 0 29 -17q48 -92 333 -199q14 -9 14 -20.5t-20 -26.5q-103 -80 -103 -225.5t91 -351.5q56 -128 56 -231q0 -260 -305 -360q-80 -26 -161 -26q-213 0 -289 92q-39 47 -39 90t26 65q29 26 67 26q83 0 149 -88
q97 -129 184 -129q20 0 39 7q126 47 126 222q0 122 -63 283q-5 13 -18 13t-24 -5l-262 -193q-15 -17 -23 -17t-8 18q0 28 -58 79q-171 147 -171 387zM271 569q0 -223 113 -355q41 -48 69.5 -48t46.5 14l74 54q12 9 12 16.5t-3 15.5q-23 116 -23 215t99 215q9 10 9 19t-16 13
q-128 38 -226 138q-11 11 -24 11t-23 -13q-108 -142 -108 -295z" />
    <glyph glyph-name="h" unicode="h" horiz-adv-x="978" 
d="M35 1349q0 19 21 19q23 0 103 -123q11 -17 21.5 -17t19.5 15q134 205 368 205q38 0 38 -22.5t-38 -22.5q-203 0 -203 -254v-246q0 -17 6.5 -17t13.5 5l221 163q23 17 35.5 17t12.5 -18q0 -26 55 -79q202 -195 202 -500q0 -399 -650 -860q-11 -9 -27 -9t-16 21q0 11 13 22
q477 403 477 714.5t-149 474.5q-44 48 -75.5 48t-49.5 -13l-53 -40q-16 -12 -16 -34v-532q0 -72 69 -72q26 0 72 49q13 14 23 14q23 0 23 -21q0 -9 -12 -23q-104 -122 -153 -219q-7 -14 -18 -14t-24 14q-128 137 -243 151q-17 2 -17 14t11 18q66 36 66 115v716
q0 198 -116 314q-11 11 -11 27z" />
    <glyph glyph-name="i" unicode="i" horiz-adv-x="527" 
d="M162 1305q0 72 42 103t87 31q97 0 97 -90q0 -66 -60.5 -122.5t-97.5 -56.5q-33 0 -50.5 52.5t-17.5 82.5zM40 815q0 8 6 17l154 226q9 13 18 13t17 -11q80 -109 148 -145q62 -31 62 -42t-15 -17q-65 -26 -65 -116v-487q0 -70 58 -70q20 0 37 24t34 24q18 0 18 -20
q0 -9 -16 -31q-77 -100 -120 -183q-9 -17 -23.5 -17t-22.5 16t-32 28q-136 65 -136 211v546q0 15 -8 22q-17 15 -30 32q-4 6 -10 6q-5 0 -11 -5l-19 -28q-10 -15 -20 -15q-24 0 -24 22z" />
    <glyph glyph-name="j" unicode="j" horiz-adv-x="527" 
d="M162 1305q0 72 42 103t87 31q97 0 97 -90q0 -66 -60.5 -122.5t-97.5 -56.5q-33 0 -50.5 52.5t-17.5 82.5zM-79 -363.5q0 22.5 38 22.5q203 0 203 254v872q0 14 -8 21q-17 15 -30 32q-4 6 -9.5 6t-11.5 -8l-19 -28q-10 -15 -20 -15q-24 0 -24 22q0 8 6 17l154 226
q9 13 18 13t17 -11q80 -108 148 -143q62 -31 62 -41.5t-15 -16.5q-65 -26 -65 -115v-690q0 -198 116 -314q11 -11 11 -27q0 -19 -21 -19q-23 0 -103 123q-11 17 -21.5 17t-19.5 -15q-134 -205 -368 -205q-38 0 -38 22.5z" />
    <glyph glyph-name="k" unicode="k" horiz-adv-x="648" 
d="M24 867q0 18 26 27q111 41 111 120q0 193 -115 308q-11 11 -11 27q0 19 21 19q23 0 103 -123q11 -17 21.5 -17t19.5 15q133 205 368 205q38 0 38 -22.5t-38 -22.5q-203 0 -203 -254q0 -31 11.5 -31t33.5 32q91 132 178 132q18 0 18 -17v-171q0 -15 -14 -15t-25 1.5
t-25 1.5q-75 0 -123 -37q-39 -30 -39 -58.5t26 -28.5h178q22 0 22 -22v-65q0 -22 -22 -22h-197q-22 0 -22 -22v-561q0 -72 69 -72q26 0 72 49q13 14 23 14q23 0 23 -21q0 -9 -12 -23q-104 -122 -153 -219q-7 -14 -18 -14t-24 14q-128 137 -243 151q-17 2 -17 14t11 18
q66 36 66 115v535q0 22 -20 22h-86q-32 0 -32 18z" />
    <glyph glyph-name="l" unicode="l" horiz-adv-x="568" 
d="M35 1349q0 19 21 19q23 0 103 -123q11 -17 21.5 -17t19.5 15q134 205 368 205q38 0 38 -22.5t-38 -22.5q-203 0 -203 -254v-883q0 -72 69 -72q26 0 72 49q13 14 23 14q23 0 23 -21q0 -9 -12 -23q-104 -122 -153 -219q-7 -14 -18 -14t-24 14q-128 137 -243 151
q-17 2 -17 14t11 18q66 36 66 115v716q0 185 -116 314q-11 11 -11 27z" />
    <glyph glyph-name="m" unicode="m" horiz-adv-x="1369" 
d="M15 829q0 9 16 31q77 106 120 193q9 18 23.5 18t22.5 -17t32 -29q86 -43 126 -144q4 -10 8 -10t8 4l199 186q11 10 22.5 10t23.5 -7q112 -62 160 -183q4 -10 8 -10t8 4l201 188q9 8 16 8t13 -8q80 -107 226 -167q27 -11 27 -22t-23 -22q-45 -23 -45 -82v-507
q0 -69 57 -69q20 0 37 24t35 24t18 -20q0 -9 -16 -31q-76 -106 -120 -193q-9 -18 -23.5 -18t-22.5 17t-32 29q-136 68 -136 219v548q0 14 -10 21q-62 42 -94 82q-4 5 -9.5 5t-10.5 -5l-86 -81q-8 -8 -8 -20v-488q0 -70 60 -113q11 -8 11 -16.5t-13 -17.5q-80 -55 -139 -162
q-10 -18 -20.5 -18t-20.5 18q-59 107 -139 162q-13 9 -13 16.5t11 17.5q60 59 60 113v434q0 99 -63 144q-20 14 -39 14t-35 -15l-72 -70q-9 -8 -9 -20v-487q0 -69 60 -113q11 -8 11 -16.5t-13 -17.5q-80 -55 -139 -162q-10 -18 -20.5 -18t-20.5 18q-59 107 -139 162
q-13 9 -13 17.5t11 16.5q60 44 60 113v481q0 69 -58 69q-20 0 -37 -24t-34.5 -24t-17.5 20z" />
    <glyph glyph-name="n" unicode="n" horiz-adv-x="965" 
d="M15 839q0 9 16 32q77 100 120 183q9 17 23.5 17t22.5 -16t32 -28q100 -47 128 -141q5 -13 11 -13t12 -5l209 195q9 8 16 8t13 -8q100 -109 226 -158q27 -10 27 -20.5t-23 -21.5q-45 -24 -45 -85v-524q0 -71 57 -71q20 0 37 24t35 24t18 -19q0 -9 -16 -32
q-76 -100 -120 -183q-9 -17 -23.5 -17t-22.5 16t-32 28q-136 65 -136 212v566q0 14 -10 22q-62 43 -94 81q-4 5 -9.5 5t-10.5 -14l-94 -88q-17 -16 -17 -37v-473q0 -71 60 -115q11 -8 11 -16t-13 -16q-82 -56 -139 -154q-10 -17 -20.5 -17t-20.5 17q-59 102 -139 154
q-13 8 -13 16t11 16q60 43 60 117v497q0 71 -58 71q-20 0 -37 -24t-34.5 -24t-17.5 19z" />
    <glyph glyph-name="o" unicode="o" horiz-adv-x="939" 
d="M91 213.5q0 10.5 25 24.5q46 26 46 79v587q0 18 16 20q298 37 457 139q12 8 26 8t17 -20q15 -109 73 -175q120 -135 120 -341q0 -204 -235 -367q-107 -74 -162 -169q-11 -19 -23 -19t-27 17q-89 101 -312 197q-21 9 -21 19.5zM365 307q0 -12 12 -18q54 -28 141 -96
q17 -13 38.5 -13t49.5 21q89 65 89 239t-110 320q-63 86 -81 150q-8 29 -22 29t-27 -5q-25 -9 -71 -19q-19 -4 -19 -23v-585z" />
    <glyph glyph-name="p" unicode="p" horiz-adv-x="975" 
d="M13 109q0 9 5 21q74 181 168 214q17 6 17 22v449q0 48 -38 73q-82 52 -82 124q0 99 136 219q17 15 28 15q18 0 18 -20q0 -12 -13 -25q-35 -35 -35 -71t58 -74q85 -55 120 -157q5 -15 11 -15t13 2l228 168q23 17 35.5 17t12.5 -18q0 -27 58 -77q171 -145 171 -382.5
t-221 -378.5q-111 -82 -191 -221q-8 -14 -19 -14t-25 11q-31 24 -59 44q-5 2 -9 2.5t-5 -9.5q-20 -234 -74 -418q-5 -17 -17.5 -17t-17.5 17q-67 229 -81 512q-1 22 -22 30t-51 8q-53 0 -74 -49q-10 -25 -25 -25q-20 0 -20 23zM406 301q0 -24 22 -35q56 -27 131 -75
q12 -8 26 -8t28 18q108 138 108 290q0 220 -121 350q-44 47 -75.5 47t-49.5 -16l-53 -39q-16 -12 -16 -34v-498z" />
    <glyph glyph-name="q" unicode="q" horiz-adv-x="935" 
d="M68 464q0 240 221 386q123 88 188 205q9 16 22.5 16t27.5 -17q83 -99 312 -197q21 -9 21 -19.5t-25 -24.5q-46 -26 -46 -79v-489q0 -332 -84 -635q-5 -17 -18 -17t-17 17q-75 271 -83 553q0 8 -8 8t-20 -4l-231 -170q-16 -17 -23.5 -17t-7.5 18q0 28 -58 79
q-171 147 -171 387zM271 569q0 -223 113 -355q41 -48 70 -48t46 14l60 43q26 8 26 21v500q0 12 -12 18q-65 33 -148 104q-13 11 -25 11t-22 -13q-108 -142 -108 -295z" />
    <glyph glyph-name="r" unicode="r" horiz-adv-x="714" 
d="M15 840q0 9 16 31q76 100 120 183q9 17 23.5 17t22.5 -16t32 -28q100 -48 127 -140q3 -10 8 -10t11 -4l164 188q9 10 17 10t15 -13l95 -181q6 -10 6 -20.5t-9 -19.5l-108 -117q-9 -9 -17 -9t-15 2l-78 148q-5 20 -10.5 20t-12.5 -17l-41 -48q-16 -19 -16 -43v-505
q0 -71 69 -71q29 0 72 46l37 42q12 14 23 14q23 0 23 -22q0 -8 -12 -22l-37 -42q-102 -115 -153 -219q-7 -14 -18 -14t-24 14q-128 139 -243 153q-17 2 -17 14t11 18q66 37 66 117v502q0 70 -57 70q-20 0 -37 -24t-35 -24t-18 20z" />
    <glyph glyph-name="s" unicode="s" horiz-adv-x="871" 
d="M68 576.5q0 129.5 128 277.5t184 199q20 18 35 18t31 -26q24 -38 96 -76t127 -38t86.5 38t31.5 72q0 78 -68 135t-151 57q-58 0 -110 -19q-10 -4 -22 -4q-21 0 -21 19q0 16 24 26q62 23 129 23q105 0 194.5 -78t89.5 -198t-142 -214q-51 -29 -75 -58l-19 -22
q-8 -11 -8 -20t16 -16q179 -79 179 -203.5t-128 -272t-184 -198.5q-20 -18 -35.5 -18t-31.5 25q-25 41 -93 73q-108 52 -163 52q-15 0 -27 -4.5t-23.5 -4.5t-19.5 6t-8 13t8 17l156 187q8 10 8 20t-16 16q-178 67 -178 196.5zM188 722q0 -98 162 -170q22 -10 46 -10t45 26
l117 140q14 15 14 26.5t-22 17.5q-122 34 -208 101q-20 15 -40 15q-33 0 -73.5 -48t-40.5 -98zM299 317q0 -12 22 -18q122 -34 207 -101q20 -15 40 -15q33 0 74 48t41 98q0 94 -162 170q-22 10 -46 10t-46 -25l-117 -141q-13 -14 -13 -26z" />
    <glyph glyph-name="t" unicode="t" horiz-adv-x="612" 
d="M27 862.5q0 13.5 24 30.5q268 190 421 405q17 24 32 24q19 0 19 -20q0 -11 -15 -31q-140 -206 -140 -299q0 -14 15 -14h165q22 0 22 -22v-65q0 -22 -22 -22h-161q-22 0 -22 -22v-561q0 -72 69 -72q26 0 72 49q13 14 23 14q23 0 23 -21q0 -9 -12 -23q-104 -122 -153 -219
q-7 -14 -18 -14t-24 14q-128 137 -243 151q-17 2 -17 14t11 18q66 36 66 115v535q0 22 -20 22h-89q-26 0 -26 13.5z" />
    <glyph glyph-name="u" unicode="u" horiz-adv-x="965" 
d="M950 212q0 -9 -16 -32q-77 -100 -120 -183q-9 -17 -23.5 -17t-22.5 16t-32 28q-100 47 -128 141q-5 13 -11 13t-12 5l-209 -195q-9 -8 -16 -8t-13 8q-100 109 -226 158q-27 10 -27 20.5t23 21.5q45 24 45 85v524q0 71 -57 71q-20 0 -37 -24t-35 -24t-18 19q0 9 16 32
q76 100 120 183q9 17 23.5 17t22.5 -16t32 -28q136 -65 136 -212v-566q0 -14 10 -22q62 -43 94 -81q4 -5 9.5 -5t10.5 14l94 88q17 16 17 38v472q0 71 -60 115q-11 8 -11 16t13 16q82 56 139 154q10 17 20.5 17t20.5 -17q59 -102 139 -154q13 -8 13 -16t-11 -16
q-60 -43 -60 -117v-497q0 -71 58 -71q20 0 37 24t34.5 24t17.5 -19z" />
    <glyph glyph-name="v" unicode="v" horiz-adv-x="949" 
d="M39 936q0 136 197 292q19 15 28 15q18 0 18 -20q0 -14 -13 -25q-81 -68 -81 -137t65 -138q32 -34 57 -70q7 -11 15 -11t16 6l280 206q23 17 35.5 17t12.5 -18q0 -28 58 -79q171 -147 171 -387t-221 -386q-123 -88 -189 -205q-9 -16 -24 -16t-26 17q-67 101 -321 199
q-26 10 -26 20.5t20 26.5q103 83 103 222q0 201 -109 320q-66 72 -66 151zM297 336q0 -9 16 -13q120 -30 227 -138q11 -11 24 -11t23 13q108 142 108 295q0 223 -121 355q-44 48 -75 48t-50 -14l-84 -61q-12 -9 -12 -18t4 -18q48 -96 48 -202t-99 -217q-9 -10 -9 -19z" />
    <glyph glyph-name="w" unicode="w" horiz-adv-x="1383" 
d="M42 1011q0 100 136 220q17 15 28 15q18 0 18 -20q0 -12 -13 -25q-35 -35 -35 -70.5t58 -74.5q105 -72 125 -188q3 -15 9 -15t13 6l216 202q11 10 23 10t23 -7q113 -72 157 -175q5 -11 10.5 -11t10.5 4l234 172q23 17 35.5 17t12.5 -18q0 -28 58 -79q171 -147 171 -387
t-221 -386q-123 -88 -189 -205q-9 -16 -22.5 -16t-27.5 17q-158 190 -305 202q-24 2 -24 16.5t23 28.5q44 26 44 73v424q0 99 -63 144q-20 14 -39 14t-35 -15l-88 -85q-20 -18 -20 -44v-448q0 -69 60 -113q11 -8 11 -16.5t-13 -17.5q-80 -55 -139 -162q-10 -18 -20.5 -18
t-20.5 18q-59 107 -139 162q-13 9 -13 17.5t11 16.5q60 44 60 113v504q0 49 -38 74q-82 53 -82 126zM813 333q0 -19 21 -29q82 -42 141 -118q12 -15 23 -15t23 16q108 144 108 295q0 223 -121 355q-44 48 -75.5 48t-48.5 -13l-59 -44q-12 -9 -12 -22v-473z" />
    <glyph glyph-name="x" unicode="x" horiz-adv-x="714" 
d="M-6 -36q0 92 33 145q24 39 70 68q65 43 65 119v502q0 70 -57 70q-20 0 -37 -24t-35 -24t-18 20q0 9 16 31q76 100 120 183q9 17 23.5 17t22.5 -16t32 -28q100 -48 127 -140q3 -10 8 -10t11 -4l164 188q9 10 17 10t15 -13l95 -181q6 -10 6 -20.5t-9 -19.5l-108 -117
q-9 -9 -17 -9t-15 2l-78 148q-5 20 -10.5 20t-12.5 -17l-41 -48q-16 -19 -16 -43v-505q0 -71 69 -71q29 0 72 46l37 42q12 14 23 14q23 0 23 -22q0 -8 -12 -22l-37 -42q-103 -117 -153 -219q-7 -14 -18.5 -14t-23.5 14q-75 88 -145 88t-114 -44.5t-44 -114.5t58.5 -120.5
t139 -50.5t145.5 35.5t100.5 35.5t60.5 -27t25 -70t-48 -77.5t-125 -34.5q-216 0 -335 141q-69 82 -69 209z" />
    <glyph glyph-name="y" unicode="y" horiz-adv-x="978" 
d="M42 1011q0 100 136 220q17 15 28 15q18 0 18 -20q0 -12 -13 -25q-35 -35 -35 -71t58 -74q85 -56 120 -160q5 -15 11 -15t13 5l228 168q23 17 35.5 17t12.5 -18q0 -26 55 -79q202 -195 202 -500q0 -399 -650 -860q-11 -9 -27 -9t-16 21q0 11 13 22q477 403 477 714.5
t-149 474.5q-44 48 -75.5 48t-49.5 -13l-53 -39q-16 -12 -16 -34v-533q0 -72 69 -72q26 0 72 49q13 14 23 14q23 0 23 -21q0 -9 -12 -23q-104 -122 -153 -219q-7 -14 -18 -14t-24 14q-128 137 -243 151q-17 2 -17 14t11 18q66 36 66 115v519q0 49 -38 74q-82 53 -82 126z
" />
    <glyph glyph-name="z" unicode="z" horiz-adv-x="732" 
d="M59 -62q0 289 244 450q9 5 9 10.5t-10 11.5q-56 39 -94 39q-22 0 -38.5 -5.5t-25.5 -5.5q-22 0 -22 22q0 18 20 25q216 77 216 231q0 55 -34 99q-41 53 -83 53t-71 -42q-14 -20 -26 -20q-22 0 -22 19q0 11 10 23l167 210q11 13 24 13t24 -17t35 -34q151 -102 151 -213
q0 -113 -105 -209q-14 -14 -14 -24t15 -18q23 -11 47 -29q7 -6 16 -6t17 6q54 33 100 53q14 7 21 7q23 0 23 -23q0 -13 -19 -22q-68 -32 -89 -52q-8 -7 -8 -13t6 -13q117 -136 117 -399q0 -191 -96 -321t-228 -130t-214 112q-63 86 -63 212zM178 -35q0 -130 47 -223
q42 -83 111 -83t113 75q48 81 48 206q0 278 -117 401q-6 9 -13.5 9t-16.5 -9q-172 -160 -172 -376z" />
    <glyph glyph-name="braceleft" unicode="{" horiz-adv-x="616" 
d="M79 520q0 23 27 23q162 0 162 242q0 76 -14 164t-14 152q0 347 365 347q27 0 27 -22.5t-27 -22.5q-162 0 -162 -242q0 -76 14 -164t14 -152q0 -198 -120 -283q-29 -21 -29 -41.5t29 -41.5q120 -84 120 -283q0 -64 -14 -152t-14 -164q0 -242 162 -242q27 0 27 -22.5
t-27 -22.5q-365 0 -365 347q0 64 14 152t14 164q0 242 -162 242q-27 0 -27 22z" />
    <glyph glyph-name="bar" unicode="|" horiz-adv-x="287" 
d="M106 -384v1809q0 23 23 23h29q23 0 23 -23v-1809q0 -23 -23 -23h-29q-23 0 -23 23z" />
    <glyph glyph-name="braceright" unicode="}" horiz-adv-x="616" 
d="M537 521q0 -23 -27 -23q-162 0 -162 -242q0 -76 14 -164t14 -152q0 -347 -365 -347q-27 0 -27 22.5t27 22.5q162 0 162 242q0 76 -14 164t-14 152q0 198 120 283q29 21 29 41.5t-29 41.5q-120 84 -120 283q0 64 14 152t14 164q0 242 -162 242q-27 0 -27 22.5t27 22.5
q365 0 365 -347q0 -64 -14 -152t-14 -164q0 -242 162 -242q27 0 27 -22z" />
    <glyph glyph-name="nbspace" unicode="&#xa0;" horiz-adv-x="600" 
 />
    <glyph glyph-name="exclamdown" unicode="&#xa1;" horiz-adv-x="504" 
d="M427 -231q0 -10 -16 -18q-105 -55 -141 -141q-8 -17 -18 -17t-18 17q-36 86 -141 141q-16 9 -16 17.5t13 17.5q16 12 28 50q85 266 116 704q2 28 18 28t18 -28q33 -439 116 -704q12 -38 28 -50q13 -9 13 -17zM411 902q0 -9 -15 -16q-88 -42 -128 -128q-7 -15 -16 -15
t-16 15q-42 88 -128 128q-15 7 -15 16t15 16q88 42 128 128q7 15 16 15t16 -15q42 -88 128 -128q15 -7 15 -16z" />
    <glyph glyph-name="section" unicode="&#xa7;" horiz-adv-x="758" 
d="M68 686q0 103 115 230q6 6 6 10.5t-6 10.5q-65 66 -65 141q0 65 60.5 170t130.5 186q12 14 25 14t28 -7l206 -96q13 -17 28 -17t25 15.5t23 15.5q22 0 22 -24q0 -9 -6 -18l-104 -172q-12 -20 -28.5 -20t-31.5 30l-220 102q-13 -12 -27 -12t-27 -19.5t-13 -38.5
q0 -84 241.5 -191.5t241.5 -253.5q0 -102 -115 -230q-6 -6 -6 -10.5t6 -10.5q65 -66 65 -141q0 -65 -60.5 -170t-130.5 -186q-12 -14 -25 -14t-28 7l-206 96q-13 17 -27.5 17t-24.5 -15.5t-24 -15.5q-22 0 -22 24q0 9 6 18l104 172q12 20 28.5 20t31.5 -30l220 -102
q13 12 27 12t27 19.5t13 38.5q0 84 -241.5 191.5t-241.5 253.5zM185 802q0 -100 191 -184q84 -37 139 -74q9 -6 16.5 -6t13.5 7q30 38 30 81q0 100 -191 184q-84 37 -139 74q-9 6 -16.5 6t-13.5 -7q-30 -38 -30 -81z" />
    <glyph glyph-name="dieresis" unicode="&#xa8;" horiz-adv-x="768" 
d="M470 1305q0 72 42 103t87 31q97 0 97 -90q0 -66 -60.5 -122.5t-97.5 -56.5q-33 0 -50.5 52.5t-17.5 82.5zM100 1305q0 72 42 103t87 31q97 0 97 -90q0 -66 -60.5 -122.5t-97.5 -56.5q-33 0 -50.5 52.5t-17.5 82.5z" />
    <glyph glyph-name="ordfeminine" unicode="&#xaa;" horiz-adv-x="589" 
d="M68 1101q0 138 122 237q68 55 106 117q11 16 19 16t21 -15q58 -68 171 -108q23 -8 23 -20t-15 -21q-27 -15 -27 -47v-271q0 -32 19 -32q12 0 23 15.5t22 15.5q22 0 22 -20q0 -10 -8 -22q-38 -57 -68 -108q-10 -18 -23.5 -18t-21 14t-25.5 25q-34 21 -51 63q-4 11 -9.5 11
t-13.5 -6l-122 -90q-23 -17 -35.5 -17t-12.5 18q0 21 -22 40q-94 85 -94 223zM184 1134q0 -106 61 -167q21 -21 40 -21t32 10l43 32q7 5 7 13v256q0 24 -20 34q-33 15 -60 35q-11 8 -21.5 8t-19.5 -12q-62 -82 -62 -188z" />
    <glyph glyph-name="guillemotleft" unicode="&#xab;" horiz-adv-x="945" 
d="M473 1002q0 -6 -5 -16l-179 -369q-7 -14 -7 -23.5t7 -23.5l179 -369q5 -10 5 -16q0 -20 -21 -20q-10 0 -25 17l-344 388q-11 12 -11 23.5t11 23.5l344 388q15 17 25 17q21 0 21 -20zM827 1002q0 -6 -5 -16l-179 -369q-7 -14 -7 -23.5t7 -23.5l179 -369q5 -10 5 -16
q0 -20 -21 -20q-10 0 -25 17l-344 388q-11 12 -11 23.5t11 23.5l344 388q15 17 25 17q21 0 21 -20z" />
    <glyph glyph-name="degree" unicode="&#xb0;" horiz-adv-x="572" 
d="M69 1238q0 140 111 198q49 26 106 26q98 0 157.5 -67t59.5 -157q0 -141 -111 -198q-49 -26 -106 -26q-98 0 -157.5 67t-59.5 157zM174 1345q0 -50 47 -141q71 -134 126 -134q12 0 23 6q28 14 28 54q0 51 -47 142q-70 134 -126 134q-12 0 -23 -6q-28 -15 -28 -55z" />
    <glyph glyph-name="plusminus" unicode="&#xb1;" 
d="M101 -375v63q0 23 23 23h1801q23 0 23 -23v-63q0 -23 -23 -23h-1801q-23 0 -23 23zM101 712v63q0 23 23 23h823q23 0 23 23v823q0 23 23 23h63q23 0 23 -23v-823q0 -23 23 -23h823q23 0 23 -23v-63q0 -23 -23 -23h-823q-23 0 -23 -23v-823q0 -23 -23 -23h-63
q-23 0 -23 23v823q0 23 -23 23h-823q-23 0 -23 23z" />
    <glyph glyph-name="two.superior" unicode="&#xb2;" horiz-adv-x="594" 
d="M287 884h142q28 0 31 30l1 11q3 32 25 32q23 0 20 -37l-15 -166q-3 -37 -27 -37q-16 0 -24 10t-21 10h-270q-18 0 -31 -10t-29.5 -10t-16.5 21q0 64 162 233q113 118 113 301q0 66 -14.5 105t-52.5 39q-42 0 -58 -33t-16 -81q0 -74 -73 -74q-68 0 -68 67.5t66 116.5
t148 49q96 0 155 -53t59 -160q0 -149 -221 -315q-24 -18 -24 -35q0 -14 39 -14z" />
    <glyph glyph-name="three.superior" unicode="&#xb3;" horiz-adv-x="599" 
d="M284 1092q-32 0 -44 -4.5t-27 -4.5q-24 0 -24 18q0 15 34 28q127 47 127 143q0 69 -17 106.5t-56 37.5t-55 -33t-16 -81q0 -74 -70.5 -74t-70.5 67.5t66 116.5t148 49q109 0 158 -53.5t49 -120t-52 -105.5q-9 -7 -9 -12t11 -11q103 -67 103 -173.5t-67.5 -187.5
t-192.5 -81q-84 0 -149 49t-65 116.5t68 67.5q73 0 73 -74q0 -48 24 -81t59.5 -33t64.5 44t29 122q0 164 -99 164z" />
    <glyph glyph-name="paragraph" unicode="&#xb6;" horiz-adv-x="900" 
d="M68 775.5q0 204.5 142.5 327t303.5 143.5q30 4 30 32v24q0 22 24 22h28q24 0 24 -22v-27q0 -27 30 -30q11 -1 19 -2.5t11 -1.5q20 0 20 24v37q0 22 22 22h30q22 0 22 -22v-54q0 -28 27 -35q44 -9 44 -29q0 -27 -27 -27q-8 0 -15.5 2t-12.5 2q-16 0 -16 -22v-727
q0 -22 16 -22q5 0 12.5 2t15.5 2q27 0 27 -27q0 -20 -44 -29q-27 -7 -27 -35v-184q0 -22 -22 -22h-30q-22 0 -22 22v167q0 24 -20 24q-3 0 -11 -1.5t-19 -2.5q-30 -3 -30 -30v-157q0 -22 -24 -22h-28q-24 0 -24 22v155q0 27 -30 31q-161 21 -303.5 143.5t-142.5 327z
M340 775.5q0 -145.5 39.5 -241t135.5 -141.5q10 -5 18 -5q11 0 11 24v727q0 24 -11 24q-8 0 -18 -5q-96 -46 -135.5 -141.5t-39.5 -241zM620 394q0 -28 27 -28q15 0 28 1q25 2 25 29v759q0 27 -25 29q-13 1 -28 1q-27 0 -27 -28v-763z" />
    <glyph glyph-name="periodcentered" unicode="&#xb7;" horiz-adv-x="444" 
d="M93 561q0 9 15 16q88 42 128 128q7 15 16 15t16 -15q42 -88 128 -128q15 -7 15 -16t-15 -16q-88 -42 -128 -128q-7 -15 -16 -15t-16 15q-42 88 -128 128q-15 7 -15 16z" />
    <glyph glyph-name="one.superior" unicode="&#xb9;" horiz-adv-x="559" 
d="M67 1239q0 11 13 21l37 30l205 165q20 16 39.5 16t19.5 -18q0 -6 -3 -15q-7 -22 -7 -44v-536q0 -74 75 -74q40 0 40 -22.5t-40 -22.5h-301q-40 0 -40 22.5t40 22.5q75 0 75 74v362q0 50 -30 50q-25 0 -55 -24l-24 -19q-12 -10 -22 -10q-22 0 -22 22z" />
    <glyph glyph-name="ordmasculine" unicode="&#xba;" horiz-adv-x="595" 
d="M62 963.5q0 11.5 16 19.5q27 14 27 47v327q0 26 23 28q144 13 251 77q15 9 23.5 9t10.5 -19q5 -42 43 -97q71 -98 71 -207q0 -114 -140 -216q-58 -43 -87 -93q-11 -19 -22 -19t-28 17q-79 73 -170 108q-18 7 -18 18.5zM226 1020q0 -13 12 -18q7 -3 52 -34
q18 -12 35.5 -12t34.5 12q56 40 56 129.5t-44.5 157.5t-51.5 90q-10 29 -22.5 29t-24.5 -5t-29.5 -8.5t-17.5 -22.5v-318z" />
    <glyph glyph-name="guillemotright" unicode="&#xbb;" horiz-adv-x="945" 
d="M472 186q0 6 5 16l179 369q7 14 7 23.5t-7 23.5l-179 369q-5 10 -5 16q0 20 21 20q10 0 25 -17l344 -388q11 -12 11 -23.5t-11 -23.5l-344 -388q-15 -17 -25 -17q-21 0 -21 20zM118 186q0 6 5 16l179 369q7 14 7 23.5t-7 23.5l-179 369q-5 10 -5 16q0 20 21 20
q10 0 25 -17l344 -388q11 -12 11 -23.5t-11 -23.5l-344 -388q-15 -17 -25 -17q-21 0 -21 20z" />
    <glyph glyph-name="onequarter" unicode="&#xbc;" horiz-adv-x="1298" 
d="M67 1239q0 11 13 21l37 30l205 165q20 16 39.5 16t19.5 -18q0 -6 -3 -15q-7 -22 -7 -44v-536q0 -74 75 -74q40 0 40 -22.5t-40 -22.5h-301q-40 0 -40 22.5t40 22.5q75 0 75 74v362q0 50 -30 50q-25 0 -55 -24l-24 -19q-12 -10 -22 -10q-22 0 -22 22zM1187 1448
q17 0 17 -11q0 -5 -4 -13l-932 -1799q-12 -24 -40 -24h-69q-18 0 -18 11q0 5 4 13l933 1799q12 24 39 24h70zM825 -73q-4 -7 -4 -13q0 -11 24 -11h92q23 0 23 23v123q0 52 -14 52t-41 -42zM960 -214q0 23 -23 23h-185q-16 0 -16 17v23q0 18 9 33l257 422q10 16 28 16h65
q16 0 16 -17v-377q0 -23 24 -23h71q16 0 16 -17v-60q0 -17 -16 -17h-71q-24 0 -24 -23v-86q0 -54 55 -54q40 0 40 -22.5t-40 -22.5h-261q-40 0 -40 22.5t40 22.5q55 0 55 54v86z" />
    <glyph glyph-name="onehalf" unicode="&#xbd;" horiz-adv-x="1295" 
d="M1187 1448q17 0 17 -11q0 -5 -4 -13l-932 -1799q-12 -24 -40 -24h-69q-18 0 -18 11q0 5 4 13l933 1799q12 24 39 24h70zM1028 -254h142q28 0 31 30l1 11q3 32 25 32q23 0 20 -37l-15 -166q-3 -37 -27 -37q-16 0 -24 10t-21 10h-270q-18 0 -31 -10t-29.5 -10t-16.5 21
q0 64 162 233q113 118 113 301q0 66 -14.5 105t-52.5 39q-42 0 -58 -33t-16 -81q0 -74 -73 -74q-68 0 -68 67.5t66 116.5t148 49q96 0 155 -53t59 -160q0 -149 -221 -315q-24 -18 -24 -35q0 -14 39 -14zM67 1239q0 11 13 21l37 30l205 165q20 16 39.5 16t19.5 -18
q0 -6 -3 -15q-7 -22 -7 -44v-536q0 -74 75 -74q40 0 40 -22.5t-40 -22.5h-301q-40 0 -40 22.5t40 22.5q75 0 75 74v362q0 50 -30 50q-25 0 -55 -24l-24 -19q-12 -10 -22 -10q-22 0 -22 22z" />
    <glyph glyph-name="threequarters" unicode="&#xbe;" horiz-adv-x="1298" 
d="M284 1092q-32 0 -44 -4.5t-27 -4.5q-24 0 -24 18q0 15 34 28q127 47 127 143q0 69 -17 106.5t-56 37.5t-55 -33t-16 -81q0 -74 -70.5 -74t-70.5 67.5t66 116.5t148 49q109 0 158 -53.5t49 -120t-52 -105.5q-9 -7 -9 -12t11 -11q103 -67 103 -173.5t-67.5 -187.5
t-192.5 -81q-84 0 -149 49t-65 116.5t68 67.5q73 0 73 -74q0 -48 24 -81t59.5 -33t64.5 44t29 122q0 164 -99 164zM825 -73q-4 -7 -4 -13q0 -11 24 -11h92q23 0 23 23v123q0 52 -14 52t-41 -42zM960 -214q0 23 -23 23h-185q-16 0 -16 17v23q0 18 9 33l257 422q10 16 28 16
h65q16 0 16 -17v-377q0 -23 24 -23h71q16 0 16 -17v-60q0 -17 -16 -17h-71q-24 0 -24 -23v-86q0 -54 55 -54q40 0 40 -22.5t-40 -22.5h-261q-40 0 -40 22.5t40 22.5q55 0 55 54v86zM1187 1448q17 0 17 -11q0 -5 -4 -13l-932 -1799q-12 -24 -40 -24h-69q-18 0 -18 11
q0 5 4 13l933 1799q12 24 39 24h70z" />
    <glyph glyph-name="questiondown" unicode="&#xbf;" horiz-adv-x="672" 
d="M650 -167q0 -8 -11 -17l-221 -200q-27 -23 -41 -23q-15 0 -21 22q-6 21 -26 31q-280 135 -280 355q0 156 150 271t160 258q2 28 20 28t18 -65q0 -115 -72 -217t-73 -216q0 -114 125 -214q62 -50 120.5 -50t109.5 50q10 10 22 10q20 0 20 -23zM537 902q0 -9 -15 -16
q-88 -42 -128 -128q-7 -15 -16 -15t-16 15q-42 88 -128 128q-15 7 -15 16t15 16q88 42 128 128q7 15 16 15t16 -15q42 -88 128 -128q15 -7 15 -16z" />
    <glyph glyph-name="Adieresis" unicode="&#xc4;" horiz-adv-x="2237" 
d="M-50 985q0 140 91 272q147 214 387.5 214t360.5 -132t120 -324q0 -289 -403 -608q-24 -19 -24 -32q0 -18 44 -24q79 -11 162.5 -107t167.5 -96q55 0 101 51q102 110 102 258v723q0 36 -31.5 36t-31.5 24.5t27 31.5q175 45 357 188q14 11 28 11q24 0 24 -24q0 -16 -17 -31
q-130 -111 -130 -232v-882q0 -152 80 -152q28 0 70 42q14 14 29 14q26 0 26 -26q0 -13 -12 -25l-118 -120q-54 -55 -118 -55q-151 0 -173 172q-5 39 -23.5 39t-47.5 -30q-175 -181 -321 -181q-122 0 -224 118.5t-172 118.5q-32 0 -64 -21q-14 -9 -28 -9q-24 0 -24 25
q0 16 19 29q499 324 499 647q0 161 -104 276q-139 155 -284 155t-207 -93q-51 -76 -51 -152q0 -120 179 -194q193 -81 193 -192q0 -75 -115 -191q-13 -13 -25 -13q-27 0 -27 29q0 12 14 25q27 25 27 50q0 57 -137 115q-196 83 -196 282zM1543 554q0 323 274 438
q144 60 210 60q-2 0 -3 -7l142 -357q14 -6 14 -12q0 -13 -28 -20l-390 -155q-4 -7 -4 -19q0 -5 1 -10q13 -72 41 -123q91 -166 219 -166q51 0 130 40q14 7 20 7q21 0 21 -24q0 -11 -18 -21q-146 -88 -289 -191q-19 -14 -29.5 -14t-17 25.5t-29.5 41.5q-264 163 -264 507z
M1746 648q0 -67 2 -88q1 -9 3 -9t5 -4l194 77q27 6 27 18q0 5 -16 12l-114 287q-4 10 -8.5 10t-6.5 -1q-86 -37 -86 -302z" />
    <glyph glyph-name="Odieresis" unicode="&#xd6;" horiz-adv-x="2259" 
d="M15 203q0 14 16 29q141 133 263.5 133t229.5 -93q214 -185 372 -185q162 0 267.5 99.5t105.5 309.5q0 471 -442 663q-149 65 -263 65q-71 0 -138 -31q-172 -83 -172 -224q0 -95 168 -160q226 -89 226 -223q0 -91 -112 -210q-15 -16 -32 -16q-27 0 -27 24q0 13 11.5 25.5
t11.5 24.5q0 54 -191 127q-258 102 -258 310.5t349 371.5q162 74 246 195q23 33 54 33q89 0 249 -69q475 -206 475 -725q0 -322 -237 -546q-186 -176 -477 -176q-224 0 -376.5 125t-224.5 125q-24 0 -38.5 -13t-28.5 -13q-27 0 -27 24zM1565 554q0 323 274 438
q144 60 210 60q-2 0 -3 -7l142 -357q14 -6 14 -12q0 -13 -28 -20l-390 -155q-4 -7 -4 -19q0 -5 1 -10q13 -72 41 -123q91 -166 219 -166q51 0 130 40q14 7 20 7q21 0 21 -24q0 -11 -18 -21q-146 -88 -289 -191q-19 -14 -29.5 -14t-17 25.5t-29.5 41.5q-264 163 -264 507z
M1768 648q0 -67 2 -88q1 -9 3 -9t5 -4l194 77q27 6 27 18q0 5 -16 12l-114 287q-4 10 -8.5 10t-6.5 -1q-86 -37 -86 -302z" />
    <glyph glyph-name="multiply" unicode="&#xd7;" 
d="M89 -62q0 6 8 12l797 558q13 9 13 18t-13 18l-797 558q-8 6 -8 12t4 12l43 61q6 8 12 8t12 -4l830 -581q13 -9 25 -9t25 9l830 581q6 4 12 4t12 -8l43 -61q4 -6 4 -12t-8 -12l-797 -558q-13 -9 -13 -18t13 -18l797 -558q8 -6 8 -12t-4 -12l-43 -61q-6 -8 -12 -8t-12 4
l-830 581q-13 9 -25 9t-25 -9l-830 -581q-6 -4 -12 -4t-12 8l-43 61q-4 6 -4 12z" />
    <glyph glyph-name="Udieresis" unicode="&#xdc;" horiz-adv-x="2353" 
d="M-89 1037q0 177 145 305.5t348 128.5t370 -175q25 -23 44.5 -23t35.5 24q99 174 272.5 174t242.5 -195q49 -139 101 -139q12 0 24 7.5t23 7.5q28 0 28 -29q0 -15 -21 -28q-220 -136 -220 -242.5t116 -204t116 -236.5t-213 -324q-152 -133 -404.5 -133t-423 169.5
t-243.5 169.5t-119 -40q-16 -14 -27 -14q-29 0 -29 29q0 11 16 25q197 172 318 172q30 0 49.5 -5.5t29.5 -5.5q23 0 43 18q134 119 134 327t-116.5 338t-247.5 130t-214.5 -89.5t-83.5 -197.5t68.5 -196t187 -88t180.5 55q17 15 30 15q28 0 28 -27q0 -13 -17 -28
q-90 -79 -244 -79t-240.5 113.5t-86.5 290.5zM569 420.5q0 -8.5 12 -17.5q63 -43 129 -107q231 -232 396 -232q110 0 179 67q48 45 48 136.5t-117.5 195.5t-117.5 237t165 279q16 15 16 26t-24 18q-98 29 -147 177q-44 126 -105.5 126t-105 -69.5t-43.5 -133.5q0 -17 2 -31
q14 -79 14 -151q0 -248 -292 -504q-9 -8 -9 -16.5zM1659 554q0 323 274 438q144 60 210 60q-2 0 -3 -7l142 -357q14 -6 14 -12q0 -13 -28 -20l-390 -155q-4 -7 -4 -19q0 -5 1 -10q13 -72 41 -123q91 -166 219 -166q51 0 130 40q14 7 20 7q21 0 21 -24q0 -11 -18 -21
q-146 -88 -289 -191q-19 -14 -29.5 -14t-17 25.5t-29.5 41.5q-264 163 -264 507zM1862 648q0 -67 2 -88q1 -9 3 -9t5 -4l194 77q27 6 27 18q0 5 -16 12l-114 287q-4 10 -8.5 10t-6.5 -1q-86 -37 -86 -302z" />
    <glyph glyph-name="eszett" unicode="&#xdf;" horiz-adv-x="1036" 
d="M7 851.5q0 17.5 25 27.5q127 46 127 295q0 176 63 239q34 35 83 35t109.5 -46t99.5 -46t54 56q10 36 27 36q19 0 19 -26q0 -12 -4 -24q-68 -214 -192 -214q-48 0 -97 30.5t-75 30.5q-42 0 -42 -71q0 -107 84 -171q63 -55 78 -137q12 -20 50 -1l284 199q7 7 13 7t11.5 -16
t51.5 -66q121 -115 121 -241q0 -52 -76 -128q-9 -10 -9 -15.5t9 -13.5q140 -131 140 -315t-212 -388q-178 -171 -366 -264q-10 -5 -18 -5q-21 0 -21 22q0 13 17 23q397 229 397 575q0 116 -78 208q-31 36 -73 36t-117 -25q-6 -2 -11 -2q-20 0 -20 24q0 14 19 21
q64 22 142 78q74 51 74 136q0 67 -59 118q-40 35 -80 35t-85 -20l-58 -41q-39 -22 -41 -59q-9 -331 -92 -1121q-3 -34 -18 -34t-19 34q-97 848 -97 1186q0 21 -21 21h-85q-32 0 -32 17.5z" />
    <glyph glyph-name="adieresis" unicode="&#xe4;" horiz-adv-x="935" 
d="M264 1375q0 139 111 196q49 26 106 26q128 0 192 -115q7 -12 7 -24q0 -23 -29 -37l-195 -103q-13 -7 -13 -18q0 -6 4 -12q37 -59 91 -59q91 0 123 81q10 26 27 26q19 0 19 -20q0 -11 -6 -26q-54 -140 -220 -140q-98 0 -157.5 68.5t-59.5 156.5zM370 1485q0 -55 34 -118
q7 -13 18 -13q5 0 12 3l88 46q14 7 14 19q0 5 -3 11q-58 108 -110 108q-15 0 -29 -7q-24 -12 -24 -49zM68 456q0 243 221 391q123 89 188 208q9 16 22.5 16t27.5 -17q83 -100 312 -200q21 -9 21 -19.5t-25 -24.5q-46 -27 -46 -80v-477q0 -70 58 -70q20 0 37 24t34 24
q18 0 18 -20q0 -9 -16 -31q-82 -114 -120 -183q-9 -17 -23.5 -17t-22.5 16t-32 28q-94 45 -124 131q-3 8 -14 8t-25 4l-231 -170q-15 -17 -23 -17t-8 17q0 27 -58 75q-171 141 -171 384zM271 563q0 -225 113 -358q41 -49 70 -49t46 24l60 43q26 8 26 21v498q0 12 -12 18
q-65 33 -148 104q-13 11 -25 11t-22 -14q-108 -143 -108 -298z" />
    <glyph glyph-name="odieresis" unicode="&#xf6;" horiz-adv-x="939" 
d="M202 1375q0 139 111 196q49 26 106 26q128 0 192 -115q7 -12 7 -24q0 -23 -29 -37l-195 -103q-13 -7 -13 -18q0 -6 4 -12q37 -59 91 -59q91 0 123 81q10 26 27 26q19 0 19 -20q0 -11 -6 -26q-54 -140 -220 -140q-98 0 -157.5 68.5t-59.5 156.5zM308 1485q0 -55 34 -118
q7 -13 18 -13q5 0 12 3l88 46q14 7 14 19q0 5 -3 11q-58 108 -110 108q-15 0 -29 -7q-24 -12 -24 -49zM91 213.5q0 10.5 25 24.5q46 26 46 79v587q0 18 16 20q298 37 457 139q12 8 26 8t17 -20q15 -109 73 -175q120 -135 120 -341q0 -204 -235 -367q-107 -74 -162 -169
q-11 -19 -23 -19t-27 17q-89 101 -312 197q-21 9 -21 19.5zM365 307q0 -12 12 -18q54 -28 141 -96q17 -13 38.5 -13t49.5 21q89 65 89 239t-110 320q-63 86 -81 150q-8 29 -22 29t-27 -5q-25 -9 -71 -19q-19 -4 -19 -23v-585z" />
    <glyph glyph-name="divide" unicode="&#xf7;" 
d="M101 488v75q0 17 17 17h1813q17 0 17 -17v-75q0 -17 -17 -17h-1813q-17 0 -17 17zM907 105.5q0 48.5 33 82.5t80 34t80 -34t33 -82.5t-33 -83t-80 -34.5t-80 34.5t-33 83zM907 945.5q0 48.5 33 83t80 34.5t80 -34.5t33 -83t-33 -82.5t-80 -34t-80 34t-33 82.5z" />
    <glyph glyph-name="udieresis" unicode="&#xfc;" horiz-adv-x="965" 
d="M222 1375q0 139 111 196q49 26 106 26q128 0 192 -115q7 -12 7 -24q0 -23 -29 -37l-195 -103q-13 -7 -13 -18q0 -6 4 -12q37 -59 91 -59q91 0 123 81q10 26 27 26q19 0 19 -20q0 -11 -6 -26q-54 -140 -220 -140q-98 0 -157.5 68.5t-59.5 156.5zM328 1485q0 -55 34 -118
q7 -13 18 -13q5 0 12 3l88 46q14 7 14 19q0 5 -3 11q-58 108 -110 108q-15 0 -29 -7q-24 -12 -24 -49zM950 212q0 -9 -16 -32q-77 -100 -120 -183q-9 -17 -23.5 -17t-22.5 16t-32 28q-100 47 -128 141q-5 13 -11 13t-12 5l-209 -195q-9 -8 -16 -8t-13 8q-100 109 -226 158
q-27 10 -27 20.5t23 21.5q45 24 45 85v524q0 71 -57 71q-20 0 -37 -24t-35 -24t-18 19q0 9 16 32q76 100 120 183q9 17 23.5 17t22.5 -16t32 -28q136 -65 136 -212v-566q0 -14 10 -22q62 -43 94 -81q4 -5 9.5 -5t10.5 14l94 88q17 16 17 38v472q0 71 -60 115q-11 8 -11 16
t13 16q82 56 139 154q10 17 20.5 17t20.5 -17q59 -102 139 -154q13 -8 13 -16t-11 -16q-60 -43 -60 -117v-497q0 -71 58 -71q20 0 37 24t34.5 24t17.5 -19z" />
    <glyph glyph-name="dotlessi" unicode="&#x131;" horiz-adv-x="527" 
d="M40 815q0 8 6 17l154 226q9 13 18 13t17 -11q80 -109 148 -145q62 -31 62 -42t-15 -17q-65 -26 -65 -116v-487q0 -70 58 -70q20 0 37 24t34 24q18 0 18 -20q0 -9 -16 -31q-77 -100 -120 -183q-9 -17 -23.5 -17t-22.5 16t-32 28q-136 65 -136 211v546q0 15 -8 22
q-17 15 -30 32q-4 6 -10 6q-5 0 -11 -5l-19 -28q-10 -15 -20 -15q-24 0 -24 22z" />
    <glyph glyph-name="longs" unicode="&#x17f;" horiz-adv-x="484" 
d="M7 867q0 18 25 27q127 43 127 279q0 177 63 240q34 35 83 35t109 -46t99 -46t54 56q10 36 27 36q19 0 19 -26q0 -12 -4 -24q-68 -214 -192 -214q-47 0 -96.5 30.5t-74.5 30.5q-42 0 -42 -72q0 -109 83.5 -173.5t83.5 -172.5q0 -318 -92 -1200q-4 -34 -18.5 -34t-18.5 34
q-97 882 -97 1200q0 22 -21 22h-85q-32 0 -32 18z" />
    <glyph glyph-name="dotlessj" unicode="&#x237;" horiz-adv-x="527" 
d="M-79 -363.5q0 22.5 38 22.5q203 0 203 254v872q0 14 -8 21q-17 15 -30 32q-4 6 -9.5 6t-11.5 -8l-19 -28q-10 -15 -20 -15q-24 0 -24 22q0 8 6 17l154 226q9 13 18 13t17 -11q80 -108 148 -143q62 -31 62 -41.5t-15 -16.5q-65 -26 -65 -115v-690q0 -198 116 -314
q11 -11 11 -27q0 -19 -21 -19q-23 0 -103 123q-11 17 -21.5 17t-19.5 -15q-134 -205 -368 -205q-38 0 -38 22.5z" />
    <glyph glyph-name="dotaccent" unicode="&#x2d9;" horiz-adv-x="438" 
d="M100 1305q0 72 42 103t87 31q97 0 97 -90q0 -66 -60.5 -122.5t-97.5 -56.5q-33 0 -50.5 52.5t-17.5 82.5z" />
    <glyph glyph-name="ring" unicode="&#x2da;" horiz-adv-x="572" 
d="M69 1285q0 140 111 198q49 26 106 26q98 0 157.5 -67t59.5 -157q0 -141 -111 -198q-49 -26 -106 -26q-98 0 -157.5 67t-59.5 157zM174 1392q0 -50 47 -141q71 -134 126 -134q12 0 23 6q28 14 28 54q0 51 -47 142q-70 134 -126 134q-12 0 -23 -6q-28 -15 -28 -55z" />
    <glyph glyph-name="doubleacutcomb" unicode="&#x30b;" horiz-adv-x="0" 
 />
    <glyph glyph-name="slashcomb" unicode="&#x337;" horiz-adv-x="978" 
d="M936 1016l-835 -1029q-5 -7 -10.5 -7t-12.5 5l-34 27q-7 4 -7 10t5 13l835 1029q6 7 12 7t11 -4l34 -28q7 -6 7 -11.5t-5 -11.5z" />
    <glyph glyph-name="ecomb" unicode="&#x364;" horiz-adv-x="0" 
d="M-731 1286q0 139 111 196q49 26 106 26q128 0 192 -115q7 -12 7 -24q0 -23 -29 -37l-195 -103q-13 -7 -13 -18q0 -6 4 -12q37 -59 91 -59q91 0 123 81q10 26 27 26q19 0 19 -20q0 -11 -6 -26q-54 -140 -220 -140q-98 0 -157.5 68.5t-59.5 156.5zM-625 1396q0 -55 34 -118
q7 -13 18 -13q5 0 12 3l88 46q14 7 14 19q0 5 -3 11q-58 108 -110 108q-15 0 -29 -7q-24 -12 -24 -49z" />
    <glyph glyph-name="enquad" unicode="&#x2000;" horiz-adv-x="1024" 
 />
    <glyph glyph-name="emquad" unicode="&#x2001;" 
 />
    <glyph glyph-name="enspace" unicode="&#x2002;" horiz-adv-x="1024" 
 />
    <glyph glyph-name="emspace" unicode="&#x2003;" 
 />
    <glyph glyph-name="threeperemspace" unicode="&#x2004;" horiz-adv-x="682" 
 />
    <glyph glyph-name="fourperemspace" unicode="&#x2005;" horiz-adv-x="512" 
 />
    <glyph glyph-name="sixperemspace" unicode="&#x2006;" horiz-adv-x="341" 
 />
    <glyph glyph-name="figurespace" unicode="&#x2007;" horiz-adv-x="1024" 
 />
    <glyph glyph-name="punctuationspace" unicode="&#x2008;" horiz-adv-x="411" 
 />
    <glyph glyph-name="thinspace" unicode="&#x2009;" horiz-adv-x="204" 
 />
    <glyph glyph-name="hairspace" unicode="&#x200a;" horiz-adv-x="20" 
 />
    <glyph glyph-name="zerowidthspace" unicode="&#x200b;" horiz-adv-x="0" 
 />
    <glyph glyph-name="ZWNJ" unicode="&#x200c;" horiz-adv-x="0" 
 />
    <glyph glyph-name="ZWJ" unicode="&#x200d;" horiz-adv-x="0" 
 />
    <glyph glyph-name="afii299" unicode="&#x200e;" horiz-adv-x="682" 
 />
    <glyph glyph-name="afii300" unicode="&#x200f;" horiz-adv-x="682" 
 />
    <glyph glyph-name="figuredash" unicode="&#x2012;" horiz-adv-x="1024" 
d="M42 577v103q0 22 23 22h894q23 0 23 -22v-103q0 -23 -23 -23h-894q-23 0 -23 23z" />
    <glyph glyph-name="emdash" unicode="&#x2013;" horiz-adv-x="2264" 
d="M98 576v104q0 22 22 22h2023q23 0 23 -22v-104q0 -22 -23 -22h-2023q-22 0 -22 22z" />
    <glyph glyph-name="emdash" unicode="&#x2014;" horiz-adv-x="2264" 
d="M98 576v104q0 22 22 22h2023q23 0 23 -22v-104q0 -22 -23 -22h-2023q-22 0 -22 22z" />
    <glyph glyph-name="quoteleft" unicode="&#x2018;" horiz-adv-x="444" 
d="M411 1058.5q0 -8.5 -15 -15.5q-89 -45 -128 -128q-7 -15 -16 -15t-16 15q-43 86 -128 128q-10 5 -10 13q0 128 138 341q32 50 50 50q14 0 14 -16q0 -8 -6 -19q-45 -82 -45 -146q0 -130 147 -193q15 -6 15 -14.5z" />
    <glyph glyph-name="quoteright" unicode="&#x2019;" horiz-adv-x="444" 
d="M93 1289.5q0 8.5 15 15.5q89 45 128 128q7 15 16 15t16 -15q43 -86 128 -128q10 -5 10 -13q0 -128 -138 -341q-32 -50 -50 -50q-14 0 -14 16q0 8 6 19q45 82 45 146q0 130 -147 193q-15 6 -15 14.5z" />
    <glyph glyph-name="quotesinglbase" unicode="&#x201a;" horiz-adv-x="444" 
d="M93 139.5q0 8.5 15 15.5q89 45 128 128q7 15 16 15t16 -15q43 -86 128 -128q10 -5 10 -13q0 -128 -138 -341q-32 -50 -50 -50q-14 0 -14 16q0 8 6 19q45 82 45 146q0 130 -147 193q-15 6 -15 14.5z" />
    <glyph glyph-name="quotedblleft" unicode="&#x201c;" horiz-adv-x="830" 
d="M797 1058.5q0 -8.5 -15 -15.5q-89 -45 -128 -128q-7 -15 -16 -15t-16 15q-43 86 -128 128q-10 5 -10 13q0 128 138 341q32 50 50 50q14 0 14 -16q0 -8 -6 -19q-45 -82 -45 -146q0 -130 147 -193q15 -6 15 -14.5zM411 1058.5q0 -8.5 -15 -15.5q-89 -45 -128 -128
q-7 -15 -16 -15t-16 15q-43 86 -128 128q-10 5 -10 13q0 128 138 341q32 50 50 50q14 0 14 -16q0 -8 -6 -19q-45 -82 -45 -146q0 -130 147 -193q15 -6 15 -14.5z" />
    <glyph glyph-name="quotedblright" unicode="&#x201d;" horiz-adv-x="830" 
d="M479 1289.5q0 8.5 15 15.5q89 45 128 128q7 15 16 15t16 -15q43 -86 128 -128q10 -5 10 -13q0 -128 -138 -341q-32 -50 -50 -50q-14 0 -14 16q0 8 6 19q45 82 45 146q0 130 -147 193q-15 6 -15 14.5zM93 1289.5q0 8.5 15 15.5q89 45 128 128q7 15 16 15t16 -15
q43 -86 128 -128q10 -5 10 -13q0 -128 -138 -341q-32 -50 -50 -50q-14 0 -14 16q0 8 6 19q45 82 45 146q0 130 -147 193q-15 6 -15 14.5z" />
    <glyph glyph-name="quotedblbase" unicode="&#x201e;" horiz-adv-x="830" 
d="M479 139.5q0 8.5 15 15.5q89 45 128 128q7 15 16 15t16 -15q43 -86 128 -128q10 -5 10 -13q0 -128 -138 -341q-32 -50 -50 -50q-14 0 -14 16q0 8 6 19q45 82 45 146q0 130 -147 193q-15 6 -15 14.5zM93 139.5q0 8.5 15 15.5q89 45 128 128q7 15 16 15t16 -15
q43 -86 128 -128q10 -5 10 -13q0 -128 -138 -341q-32 -50 -50 -50q-14 0 -14 16q0 8 6 19q45 82 45 146q0 130 -147 193q-15 6 -15 14.5z" />
    <glyph glyph-name="dagger" unicode="&#x2020;" horiz-adv-x="1042" 
d="M93 1020q0 8 15 16q83 44 128 128q8 15 18 15t22 -31q39 -94 194 -94q17 0 17 17q0 158 -94 194q-31 12 -31 22t15 18q84 45 128 128q8 15 16 15t16 -15q44 -83 128 -128q15 -8 15 -18t-31 -22q-93 -36 -94 -194q0 -17 17 -17q158 0 194 94q12 31 22 31t18 -15
q45 -84 128 -128q15 -8 15 -16t-15 -16q-83 -44 -128 -128q-8 -15 -18 -15t-22 31q-36 94 -194 94q-17 0 -17 -17q0 -103 30 -138.5t80 -63.5q15 -8 15 -19t-15 -21t-47 -98q-75 -208 -75 -889q0 -40 -22 -40t-22 40q0 680 -75 889q-32 88 -47 98t-15 21t15 19
q50 28 80 63.5t30 138.5q0 17 -17 17q-158 0 -194 -94q-12 -31 -22 -31t-18 15q-45 84 -128 128q-15 8 -15 16z" />
    <glyph glyph-name="daggerdbl" unicode="&#x2021;" horiz-adv-x="1042" 
d="M93 128q0 8 15 16q83 44 128 128q8 15 18 15t22 -31q36 -94 194 -94q17 0 17 17q0 156 -94 194q-32 13 -31.5 22t15.5 18q110 66 110 161.5t-110 160.5q-16 9 -15.5 18t31.5 22q94 36 94 194q0 17 -17 17q-158 0 -194 -94q-12 -31 -22 -31t-18 15q-45 84 -128 128
q-15 8 -15 16t15 16q83 44 128 128q8 15 18 15t22 -31q36 -94 194 -94q17 0 17 17q0 158 -94 194q-31 12 -31 22t15 18q84 45 128 128q8 15 16 15t16 -15q44 -83 128 -128q15 -8 15 -18t-31 -22q-94 -36 -94 -194q0 -17 17 -17q158 0 194 94q12 31 22 31t18 -15
q41 -82 128 -128q15 -8 15 -16t-15 -16q-83 -44 -128 -128q-8 -15 -18 -15t-22 31q-36 94 -194 94q-17 0 -17 -17q0 -156 94 -194q32 -13 31.5 -22t-15.5 -18q-110 -66 -110 -161.5t110 -160.5q16 -9 15.5 -18t-31.5 -22q-94 -36 -94 -194q0 -17 17 -17q158 0 194 94
q12 31 22 31t18 -15q45 -84 128 -128q15 -8 15 -16t-15 -16q-83 -44 -128 -128q-8 -15 -18 -15t-22 31q-36 94 -194 94q-17 0 -17 -17q0 -158 94 -194q31 -12 31 -22t-15 -18q-84 -45 -128 -128q-8 -15 -16 -15t-16 15q-44 83 -128 128q-15 8 -15 18t31 22q94 36 94 194
q0 17 -17 17q-158 0 -194 -94q-12 -31 -22 -31t-18 15q-41 82 -128 128q-15 8 -15 16z" />
    <glyph glyph-name="bullet" unicode="&#x2022;" horiz-adv-x="662" 
d="M93 569.5q0 13.5 22 24.5q132 63 192 192q11 22 24.5 22t23.5 -22q63 -132 192 -192q23 -11 23 -24.5t-23 -23.5q-132 -63 -192 -192q-10 -23 -23.5 -23t-24.5 23q-63 132 -192 192q-22 10 -22 23.5z" />
    <glyph glyph-name="ellipsis" unicode="&#x2026;" horiz-adv-x="1266" 
d="M915 139q0 9 15 16q88 42 128 128q7 15 16 15t16 -15q42 -88 128 -128q15 -7 15 -16t-15 -16q-88 -42 -128 -128q-7 -15 -16 -15t-16 15q-42 88 -128 128q-15 7 -15 16zM504 139q0 9 15 16q88 42 128 128q7 15 16 15t16 -15q42 -88 128 -128q15 -7 15 -16t-15 -16
q-88 -42 -128 -128q-7 -15 -16 -15t-16 15q-42 88 -128 128q-15 7 -15 16zM93 139q0 9 15 16q88 42 128 128q7 15 16 15t16 -15q42 -88 128 -128q15 -7 15 -16t-15 -16q-88 -42 -128 -128q-7 -15 -16 -15t-16 15q-42 88 -128 128q-15 7 -15 16z" />
    <glyph glyph-name="thinnbsp" unicode="&#x202f;" horiz-adv-x="204" 
 />
    <glyph glyph-name="guilsinglleft" unicode="&#x2039;" horiz-adv-x="591" 
d="M473 1002q0 -6 -5 -16l-179 -369q-7 -14 -7 -23.5t7 -23.5l179 -369q5 -10 5 -16q0 -20 -21 -20q-10 0 -25 17l-344 388q-11 12 -11 23.5t11 23.5l344 388q15 17 25 17q21 0 21 -20z" />
    <glyph glyph-name="guilsinglright" unicode="&#x203a;" horiz-adv-x="591" 
d="M118 186q0 6 5 16l179 369q7 14 7 23.5t-7 23.5l-179 369q-5 10 -5 16q0 20 21 20q10 0 25 -17l344 -388q11 -12 11 -23.5t-11 -23.5l-344 -388q-15 -17 -25 -17q-21 0 -21 20z" />
    <glyph glyph-name="fraction" unicode="&#x2044;" horiz-adv-x="1123" 
d="M1076 1448q17 0 17 -11q0 -5 -4 -13l-932 -1799q-12 -24 -40 -24h-69q-18 0 -18 11q0 5 4 13l933 1799q12 24 39 24h70z" />
    <glyph glyph-name="zero.superior" unicode="&#x2070;" horiz-adv-x="661" 
d="M68 1072q0 182 220 380q21 19 39.5 19t30 -17.5t31.5 -29.5q204 -123 204 -305t-220 -380q-21 -19 -39.5 -19t-30 17.5t-31.5 29.5q-204 123 -204 305zM171 1203q0 -150 229 -299q19 -13 36 -13t35.5 22.5t18.5 74.5q0 150 -229 299q-19 13 -36 13t-35.5 -22t-18.5 -75z
" />
    <glyph glyph-name="four.superior" unicode="&#x2074;" horiz-adv-x="608" 
d="M135 1065q-4 -7 -4 -13q0 -11 24 -11h92q23 0 23 23v123q0 52 -14 52t-41 -42zM270 924q0 23 -23 23h-185q-16 0 -16 17v23q0 18 9 33l257 422q10 16 28 16h65q16 0 16 -17v-377q0 -23 24 -23h71q16 0 16 -17v-60q0 -17 -16 -17h-71q-24 0 -24 -23v-86q0 -54 55 -54
q40 0 40 -22.5t-40 -22.5h-261q-40 0 -40 22.5t40 22.5q55 0 55 54v86z" />
    <glyph glyph-name="zero.inferior" unicode="&#x2080;" horiz-adv-x="661" 
d="M68 -66q0 182 220 380q21 19 39.5 19t30 -17.5t31.5 -29.5q204 -123 204 -305t-220 -380q-21 -19 -39.5 -19t-30 17.5t-31.5 29.5q-204 123 -204 305zM171 65q0 -150 229 -299q19 -13 36 -13t35.5 22.5t18.5 74.5q0 150 -229 299q-19 13 -36 13t-35.5 -22t-18.5 -75z" />
    <glyph glyph-name="one.inferior" unicode="&#x2081;" horiz-adv-x="559" 
d="M67 101q0 11 13 21l37 30l205 165q20 16 39.5 16t19.5 -18q0 -6 -3 -15q-7 -22 -7 -44v-536q0 -74 75 -74q40 0 40 -22.5t-40 -22.5h-301q-40 0 -40 22.5t40 22.5q75 0 75 74v362q0 50 -30 50q-25 0 -55 -24l-24 -19q-12 -10 -22 -10q-22 0 -22 22z" />
    <glyph glyph-name="two.inferior" unicode="&#x2082;" horiz-adv-x="594" 
d="M287 -254h142q28 0 31 30l1 11q3 32 25 32q23 0 20 -37l-15 -166q-3 -37 -27 -37q-16 0 -24 10t-21 10h-270q-18 0 -31 -10t-29.5 -10t-16.5 21q0 64 162 233q113 118 113 301q0 66 -14.5 105t-52.5 39q-42 0 -58 -33t-16 -81q0 -74 -73 -74q-68 0 -68 67.5t66 116.5
t148 49q96 0 155 -53t59 -160q0 -149 -221 -315q-24 -18 -24 -35q0 -14 39 -14z" />
    <glyph glyph-name="three.inferior" unicode="&#x2083;" horiz-adv-x="599" 
d="M284 -46q-32 0 -44 -4.5t-27 -4.5q-24 0 -24 18q0 15 34 28q127 47 127 143q0 69 -17 106.5t-56 37.5t-55 -33t-16 -81q0 -74 -70.5 -74t-70.5 67.5t66 116.5t148 49q109 0 158 -53.5t49 -120t-52 -105.5q-9 -7 -9 -12t11 -11q103 -67 103 -173.5t-67.5 -187.5
t-192.5 -81q-84 0 -149 49t-65 116.5t68 67.5q73 0 73 -74q0 -48 24 -81t59.5 -33t64.5 44t29 122q0 164 -99 164z" />
    <glyph glyph-name="four.inferior" unicode="&#x2084;" horiz-adv-x="608" 
d="M135 -73q-4 -7 -4 -13q0 -11 24 -11h92q23 0 23 23v123q0 52 -14 52t-41 -42zM270 -214q0 23 -23 23h-185q-16 0 -16 17v23q0 18 9 33l257 422q10 16 28 16h65q16 0 16 -17v-377q0 -23 24 -23h71q16 0 16 -17v-60q0 -17 -16 -17h-71q-24 0 -24 -23v-86q0 -54 55 -54
q40 0 40 -22.5t-40 -22.5h-261q-40 0 -40 22.5t40 22.5q55 0 55 54v86z" />
    <glyph glyph-name="Euro" unicode="&#x20ac;" horiz-adv-x="1295" 
d="M68 739.5q0 316.5 146.5 524t352.5 207.5q162 0 232 -132q8 -15 18 -15t19 7l142 117q28 23 67 23t109.5 -57.5t102 -57.5t45 19t26.5 19q30 0 30 -28q0 -10 -11 -24q-149 -189 -228.5 -189t-136.5 50.5t-104 50.5t-95 -36q-122 -95 -209 -195q-11 -12 -11 -21.5t26 -9.5
h439q22 0 22 -9t-8 -21l-101 -143q-21 -30 -57 -30h-506q-21 0 -21 9.5t6 19.5q171 273 386 442q13 10 13 19t-6 21q-43 84 -144 84q-154 0 -236 -156.5t-82 -320.5q0 -320 183.5 -558t494.5 -238q168 0 282 65q14 8 22 8q27 0 27 -32q0 -13 -21 -26q-277 -171 -506 -171
q-334 0 -521 234t-187 550.5zM456 476q0 9 8 21l101 143q21 30 57 30h412q22 0 22 -9t-8 -21l-101 -143q-21 -30 -57 -30h-412q-22 0 -22 9z" />
    <glyph glyph-name="onethird" unicode="&#x2153;" horiz-adv-x="1319" 
d="M1004 -46q-32 0 -44 -4.5t-27 -4.5q-24 0 -24 18q0 15 34 28q127 47 127 143q0 69 -17 106.5t-56 37.5t-55 -33t-16 -81q0 -74 -70.5 -74t-70.5 67.5t66 116.5t148 49q109 0 158 -53.5t49 -120t-52 -105.5q-9 -7 -9 -12t11 -11q103 -67 103 -173.5t-67.5 -187.5
t-192.5 -81q-84 0 -149 49t-65 116.5t68 67.5q73 0 73 -74q0 -48 24 -81t59.5 -33t64.5 44t29 122q0 164 -99 164zM67 1239q0 11 13 21l37 30l205 165q20 16 39.5 16t19.5 -18q0 -6 -3 -15q-7 -22 -7 -44v-536q0 -74 75 -74q40 0 40 -22.5t-40 -22.5h-301q-40 0 -40 22.5
t40 22.5q75 0 75 74v362q0 50 -30 50q-25 0 -55 -24l-24 -19q-12 -10 -22 -10q-22 0 -22 22zM1187 1448q17 0 17 -11q0 -5 -4 -13l-932 -1799q-12 -24 -40 -24h-69q-18 0 -18 11q0 5 4 13l933 1799q12 24 39 24h70z" />
    <glyph glyph-name="twothirds" unicode="&#x2154;" horiz-adv-x="1349" 
d="M287 884h142q28 0 31 30l1 11q3 32 25 32q23 0 20 -37l-15 -166q-3 -37 -27 -37q-16 0 -24 10t-21 10h-270q-18 0 -31 -10t-29.5 -10t-16.5 21q0 64 162 233q113 118 113 301q0 66 -14.5 105t-52.5 39q-42 0 -58 -33t-16 -81q0 -74 -73 -74q-68 0 -68 67.5t66 116.5
t148 49q96 0 155 -53t59 -160q0 -149 -221 -315q-24 -18 -24 -35q0 -14 39 -14zM1217 1448q17 0 17 -11q0 -5 -4 -13l-932 -1799q-12 -24 -40 -24h-69q-18 0 -18 11q0 5 4 13l933 1799q12 24 39 24h70zM1034 -46q-32 0 -44 -4.5t-27 -4.5q-24 0 -24 18q0 15 34 28
q127 47 127 143q0 69 -17 106.5t-56 37.5t-55 -33t-16 -81q0 -74 -70.5 -74t-70.5 67.5t66 116.5t148 49q109 0 158 -53.5t49 -120t-52 -105.5q-9 -7 -9 -12t11 -11q103 -67 103 -173.5t-67.5 -187.5t-192.5 -81q-84 0 -149 49t-65 116.5t68 67.5q73 0 73 -74q0 -48 24 -81
t59.5 -33t64.5 44t29 122q0 164 -99 164z" />
    <glyph glyph-name="Oneroman" unicode="&#x2160;" horiz-adv-x="627" 
d="M490 994v-629q0 -148 41 -173q12 -7 12 -18.5t-14 -16.5q-75 -27 -122 -160q-6 -17 -16 -17t-20 14q-84 117 -84 371v320q0 100 -59 100q-51 0 -110 -48q-12 -10 -22 -10q-22 0 -22 22q0 11 13 21l354 285q20 16 39.5 16t19.5 -18q0 -6 -3 -15q-7 -22 -7 -44z" />
    <glyph glyph-name="Tworoman" unicode="&#x2161;" horiz-adv-x="1100" 
d="M20 22.5q0 22.5 35 22.5h126q23 0 23 23v1132q0 24 -23 24h-126q-35 0 -35 22.5t35 22.5h989q35 0 35 -22.5t-35 -22.5h-126q-23 0 -23 -24v-1132q0 -23 23 -23h126q35 0 35 -22.5t-35 -22.5h-989q-35 0 -35 22.5zM407 68q0 -23 23 -23h239q23 0 23 23v1132q0 24 -23 24
h-239q-23 0 -23 -24v-1132z" />
    <glyph glyph-name="Threeroman" unicode="&#x2162;" horiz-adv-x="1587" 
d="M20 22.5q0 22.5 35 22.5h126q23 0 23 23v1132q0 24 -23 24h-126q-35 0 -35 22.5t35 22.5h1477q35 0 35 -22.5t-35 -22.5h-126q-23 0 -23 -24v-1132q0 -23 23 -23h126q35 0 35 -22.5t-35 -22.5h-1477q-35 0 -35 22.5zM407 68q0 -23 23 -23h239q23 0 23 23v1132
q0 24 -23 24h-239q-23 0 -23 -24v-1132zM895 68q0 -23 23 -23h239q23 0 23 23v1132q0 24 -23 24h-239q-23 0 -23 -24v-1132z" />
    <glyph glyph-name="Fourroman" unicode="&#x2163;" horiz-adv-x="1282" 
d="M430 1224q-23 0 -23 -24v-1132q0 -23 23 -23h397q23 0 17 23l-303 1132q-6 24 -28 24h-83zM1106 0h-1051q-35 0 -35 22.5t35 22.5h126q23 0 23 23v1132q0 24 -23 24h-126q-35 0 -35 22.5t35 22.5h1355q35 0 35 -22.5t-35 -22.5h-121q-22 0 -28 -24l-303 -1132
q-6 -23 17 -23h131q35 0 35 -22.5t-35 -22.5zM961 415q8 -28 16.5 -28t15.5 28l210 785q6 24 -18 24h-416q-24 0 -18 -24z" />
    <glyph glyph-name="Fiveroman" unicode="&#x2164;" horiz-adv-x="818" 
d="M511 45h131q35 0 35 -22.5t-35 -22.5h-410q-35 0 -35 22.5t35 22.5h131q23 0 17 23l-303 1132q-6 24 -28 24h-121q-35 0 -35 22.5t35 22.5h1018q35 0 35 -22.5t-35 -22.5h-121q-22 0 -28 -24l-303 -1132q-6 -23 17 -23zM497 415q8 -28 16.5 -28t15.5 28l210 785
q6 24 -18 24h-416q-24 0 -18 -24z" />
    <glyph glyph-name="Sixroman" unicode="&#x2165;" horiz-adv-x="1338" 
d="M931 68v1132q0 24 -23 24h-83q-22 0 -28 -24l-303 -1132q-6 -23 17 -23h397q23 0 23 23zM497 415q7 -28 16 -28t16 28l210 785q6 24 -18 24h-416q-24 0 -18 -24zM1134 1200v-1132q0 -23 23 -23h126q35 0 35 -22.5t-35 -22.5h-1051q-35 0 -35 22.5t35 22.5h131q23 0 17 23
l-303 1132q-6 24 -28 24h-121q-35 0 -35 22.5t35 22.5h1355q35 0 35 -22.5t-35 -22.5h-126q-23 0 -23 -24z" />
    <glyph glyph-name="Sevenroman" unicode="&#x2166;" horiz-adv-x="1827" 
d="M931 68v1132q0 24 -23 24h-83q-22 0 -28 -24l-303 -1132q-6 -23 17 -23h397q23 0 23 23zM497 415q7 -28 16 -28t16 28l210 785q6 24 -18 24h-416q-24 0 -18 -24zM1771 0h-1539q-35 0 -35 22.5t35 22.5h131q23 0 17 23l-303 1132q-6 24 -28 24h-121q-35 0 -35 22.5
t35 22.5h1843q35 0 35 -22.5t-35 -22.5h-126q-23 0 -23 -24v-1132q0 -23 23 -23h126q35 0 35 -22.5t-35 -22.5zM1134 68q0 -23 23 -23h239q23 0 23 23v1132q0 24 -23 24h-239q-23 0 -23 -24v-1132z" />
    <glyph glyph-name="Eightroman" unicode="&#x2167;" horiz-adv-x="2314" 
d="M931 68v1132q0 24 -23 24h-83q-22 0 -28 -24l-303 -1132q-6 -23 17 -23h397q23 0 23 23zM497 415q7 -28 16 -28t16 28l210 785q6 24 -18 24h-416q-24 0 -18 -24zM2259 0h-2027q-35 0 -35 22.5t35 22.5h131q23 0 17 23l-303 1132q-6 24 -28 24h-121q-35 0 -35 22.5
t35 22.5h2331q35 0 35 -22.5t-35 -22.5h-126q-23 0 -23 -24v-1132q0 -23 23 -23h126q35 0 35 -22.5t-35 -22.5zM1157 45h239q23 0 23 23v1132q0 24 -23 24h-239q-23 0 -23 -24v-1132q0 -23 23 -23zM1622 68q0 -23 23 -23h239q23 0 23 23v1132q0 24 -23 24h-239
q-23 0 -23 -24v-1132z" />
    <glyph glyph-name="Nineroman" unicode="&#x2168;" horiz-adv-x="1522" 
d="M895 485l-236 -420q-3 -5 -3 -12.5t17 -7.5h405q19 0 19 7t-4 16l-180 415q-5 11 -9 11t-9 -9zM1036 784l235 420q3 5 3 12.5t-17 7.5h-406q-19 0 -19 -7t4 -16l180 -415q5 -11 10 -11t10 9zM567 1224h-137q-23 0 -23 -23v-1132q0 -24 23 -24h129q25 0 38 23l261 468
q10 18 10 34.5t-7 32.5l-259 598q-10 23 -35 23zM1476 1269q35 0 35 -22.5t-37 -22.5h-101q-27 0 -40 -23l-261 -468q-1 -18 -1 -34.5t-3 -32.5l259 -598q11 -23 37 -23h110q37 0 37 -22.5t-35 -22.5h-1421q-35 0 -35 22.5t35 22.5h126q23 0 23 24v1132q0 23 -23 23h-126
q-35 0 -35 22.5t35 22.5h1421z" />
    <glyph glyph-name="Tenroman" unicode="&#x2169;" horiz-adv-x="1114" 
d="M628 784l235 420q3 5 3 12.5t-17 7.5h-406q-19 0 -19 -7t4 -16l180 -415q5 -11 10 -11t10 9zM55 0q-35 0 -35 22.5t35 22.5h96q25 0 38 23l261 468q10 18 10 34.5t-7 32.5l-259 598q-10 23 -35 23h-104q-35 0 -35 22.5t35 22.5h1013q35 0 35 -22.5t-37 -22.5h-101
q-27 0 -40 -23l-261 -468q-1 -18 -1 -34.5t-3 -32.5l259 -598q11 -23 37 -23h110q37 0 37 -22.5t-35 -22.5h-1013zM487 485l-236 -420q-3 -5 -3 -12.5t17 -7.5h405q19 0 19 7t-4 16l-180 415q-5 11 -9 11t-9 -9z" />
    <glyph glyph-name="Elevenroman" unicode="&#x216a;" horiz-adv-x="1522" 
d="M628 784l235 420q3 5 3 12.5t-17 7.5h-406q-19 0 -19 -7t4 -16l180 -415q5 -11 10 -11t10 9zM487 485l-236 -420q-3 -5 -3 -12.5t17 -7.5h405q19 0 19 7t-4 16l-180 415q-5 11 -9 11t-9 -9zM956 45h143q24 0 24 23v1132q0 24 -24 24h-135q-26 0 -39 -23l-261 -468
q-1 -18 -1 -34.5t-3 -32.5l259 -598q11 -23 37 -23zM55 0q-35 0 -35 22.5t35 22.5h96q25 0 38 23l261 468q10 18 10 34.5t-7 32.5l-259 598q-10 23 -35 23h-104q-35 0 -35 22.5t35 22.5h1420q35 0 35 -22.5t-35 -22.5h-126q-23 0 -23 -24v-1132q0 -23 23 -23h126
q35 0 35 -22.5t-35 -22.5h-1420z" />
    <glyph glyph-name="Twelveroman" unicode="&#x216b;" horiz-adv-x="2011" 
d="M956 45h143q24 0 24 23v1132q0 24 -24 24h-135q-26 0 -39 -23l-261 -468q-1 -18 -1 -34.5t-3 -32.5l259 -598q11 -23 37 -23zM55 0q-35 0 -35 22.5t35 22.5h96q25 0 38 23l261 468q10 18 10 34.5t-7 32.5l-259 598q-10 23 -35 23h-104q-35 0 -35 22.5t35 22.5h1907
q35 0 35 -22.5t-35 -22.5h-126q-23 0 -23 -24v-1132q0 -23 23 -23h126q35 0 35 -22.5t-35 -22.5h-1907zM1326 68q0 -23 23 -23h238q23 0 23 23v1132q0 24 -23 24h-238q-23 0 -23 -24v-1132zM628 784l235 420q3 5 3 12.5t-17 7.5h-406q-19 0 -19 -7t4 -16l180 -415
q5 -11 10 -11t10 9zM487 485l-236 -420q-3 -5 -3 -12.5t17 -7.5h405q19 0 19 7t-4 16l-180 415q-5 11 -9 11t-9 -9z" />
    <glyph glyph-name="Fiftyroman" unicode="&#x216c;" horiz-adv-x="899" 
d="M813 277q23 72 34 72t11 -72v-262q0 -35 -19.5 -35t-27.5 10t-21 10h-735q-35 0 -35 22.5t35 22.5h126q23 0 23 23v1132q0 24 -23 24h-126q-35 0 -35 22.5t35 22.5h501q35 0 35 -22.5t-35 -22.5h-126q-23 0 -23 -24v-1121q0 -23 23 -23h298q16 0 23 23z" />
    <glyph glyph-name="Hundredroman" unicode="&#x216d;" horiz-adv-x="988" 
d="M68 629q0 291 142 475t372 184q143 0 193 -40.5t50 5.5q0 41 27.5 41t27.5 -41v-293q0 -35 -24.5 -35t-31.5 40q-50 267 -242 267q-96 0 -192 -144t-96 -459t90 -441t256 -126q106 0 234 130q18 17 29 17q24 0 24 -26q0 -12 -11 -30q-108 -173 -337 -173
q-276 0 -393.5 179t-117.5 470z" />
    <glyph glyph-name="Fivehundredroman" unicode="&#x216e;" horiz-adv-x="1071" 
d="M20 22.5q0 22.5 35 22.5h126q23 0 23 23v1133q0 23 -23 23h-126q-35 0 -35 22.5t35 22.5h375q572 0 572 -634.5t-572 -634.5h-375q-35 0 -35 22.5zM407 68q0 -23 23 -23q369 0 369 589.5t-369 589.5q-23 0 -23 -23v-1133z" />
    <glyph glyph-name="Thousandroman" unicode="&#x216f;" horiz-adv-x="1207" 
d="M260 1003v-935q0 -23 23 -23h126q35 0 35 -22.5t-35 -22.5h-354q-35 0 -35 22.5t35 22.5h126q23 0 23 23v1132q0 24 -23 24h-126q-35 0 -35 22.5t35 22.5h333q25 0 31 -24l172 -640q7 -28 16 -28q8 0 15 28l172 643q6 21 32 21h326q35 0 35 -22.5t-35 -22.5h-126
q-23 0 -23 -24v-1132q0 -23 23 -23h126q35 0 35 -22.5t-35 -22.5h-501q-35 0 -35 22.5t35 22.5h126q23 0 23 23v934q0 27 -3.5 27t-9.5 -24l-233 -869q-12 -45 -24 -45t-24 45l-232 866q-7 26 -10.5 26t-3.5 -25z" />
    <glyph glyph-name="minus" unicode="&#x2212;" 
d="M101 494v63q0 23 23 23h1801q23 0 23 -23v-63q0 -23 -23 -23h-1801q-23 0 -23 23z" />
    <glyph glyph-name="rrot" unicode="&#xa75b;" horiz-adv-x="568" 
d="M15 843q0 8 16 29q76 100 120 182q9 17 24 17t18 -11t18 -16q277 -107 277 -312q0 -183 -243 -421q-9 -8 -9 -15.5t13 -12.5q52 -21 117 -81q20 -19 43.5 -19t59.5 42q12 14 23 14q23 0 23 -20q0 -8 -12 -21q-104 -114 -153 -205q-7 -13 -18 -13t-24 13
q-130 128 -243 139q-18 1 -18 9t12 20q259 293 259 491q0 96 -75.5 156t-137.5 60q-24 0 -38 -22t-33 -22t-19 19z" />
    <glyph glyph-name="figuredash_figuredash" unicode="&#xe01f;" 
d="M42 577v103q0 22 23 22h1918q23 0 23 -22v-103q0 -23 -23 -23h-1918q-23 0 -23 23z" />
    <glyph glyph-name="asterisk.01" unicode="&#xe02f;" horiz-adv-x="966" 
d="M144 1058q0 6 6 14q39 50 39 144q0 9 -0.5 13t-0.5 10q0 14 11 14q4 0 14 -6q41 -25 94 -25t112 24q9 4 9 3t-9 3q-59 24 -112 24t-94 -25q-10 -6 -14 -6q-11 0 -11 29q0 11 0.5 18.5t0.5 23.5q0 74 -39 113q-6 6 -6 12q0 9 11 9q6 0 13 -1t17 -1q66 0 123 28q7 3 13 3
q10 0 10 -13q0 -95 111 -150q6 -3 10 -3q8 0 8 12q0 118 -95 154q-13 7 -13 14t12 13q81 40 106 106q5 13 13 13t13 -13q25 -66 106 -106q12 -6 12 -13t-13 -14q-95 -36 -95 -154q0 -12 8 -12q4 0 10 3q111 55 111 150q0 13 10 13q6 0 13 -3q57 -28 123 -28q10 0 17 1t13 1
q11 0 11 -9q0 -6 -6 -12q-39 -39 -39 -113q0 -16 0.5 -23.5t0.5 -18.5q0 -29 -11 -29q-4 0 -14 6q-41 25 -94 25t-112 -21q-10 -3 -9.5 -6t9.5 -6q59 -21 112 -21t94 25q10 6 14 6q11 0 11 -14q0 -6 -0.5 -10t-0.5 -13q0 -95 39 -145q6 -7 6 -13q0 -10 -11 -10q-6 0 -13 1
t-17 1q-66 0 -123 -28q-7 -3 -13 -3q-10 0 -10 13q0 115 -111 182q-6 3 -10 3q-8 0 -8 -14q0 -148 95 -184q13 -7 13 -14t-12 -13q-81 -40 -106 -106q-5 -13 -13 -13t-13 13q-25 66 -106 106q-12 6 -12 13t13 14q95 36 95 184q0 14 -8 14q-4 0 -10 -3q-111 -67 -111 -182
q0 -13 -10 -13q-6 0 -13 3q-57 28 -123 28q-10 0 -17 -1t-13 -1q-11 0 -11 10z" />
    <glyph glyph-name="s.long" horiz-adv-x="484" 
d="M7 867q0 18 25 27q127 43 127 279q0 177 63 240q34 35 83 35t109 -46t99 -46t54 56q10 36 27 36q19 0 19 -26q0 -12 -4 -24q-68 -214 -192 -214q-47 0 -96.5 30.5t-74.5 30.5q-42 0 -42 -72q0 -109 83.5 -173.5t83.5 -172.5q0 -318 -92 -1200q-4 -34 -18.5 -34t-18.5 34
q-97 882 -97 1200q0 22 -21 22h-85q-32 0 -32 18z" />
    <glyph glyph-name="i.hist" horiz-adv-x="527" 
d="M162 1305q0 72 42 103t87 31q97 0 97 -90q0 -66 -60.5 -122.5t-97.5 -56.5q-33 0 -50.5 52.5t-17.5 82.5zM-79 -363.5q0 22.5 38 22.5q203 0 203 254v872q0 14 -8 21q-17 15 -30 32q-4 6 -9.5 6t-11.5 -8l-19 -28q-10 -15 -20 -15q-24 0 -24 22q0 8 6 17l154 226
q9 13 18 13t17 -11q80 -108 148 -143q62 -31 62 -41.5t-15 -16.5q-65 -26 -65 -115v-690q0 -198 116 -314q11 -11 11 -27q0 -19 -21 -19q-23 0 -103 123q-11 17 -21.5 17t-19.5 -15q-134 -205 -368 -205q-38 0 -38 22.5z" />
    <glyph glyph-name="I.hist" horiz-adv-x="1275" 
d="M-58 1q0 11 16 25q150 131 259.5 131t260 -161.5t290.5 -161.5t204 60.5t64 154.5q0 154 -193 401q-96 123 -96 272.5t165 297.5q19 17 19 29.5t-39 12.5q-121 0 -230.5 103t-236.5 103t-226 -86.5t-99 -227.5t91 -237t210.5 -96t181.5 55q17 15 30 15q28 0 28 -27
q0 -13 -17 -28q-91 -80 -251.5 -80t-268.5 117.5t-108 315t156 340t368 142.5t360.5 -135.5t236.5 -135.5q30 0 50 14q11 8 25 8q24 0 24 -28q0 -14 -6 -26q-238 -139 -238 -291t133.5 -310t133.5 -318q0 -207 -229 -402q-166 -141 -398.5 -141t-372 147t-203.5 147
q-22 0 -38 -14t-27 -14q-29 0 -29 29z" />
    <glyph glyph-name="j.hist" horiz-adv-x="527" 
d="M162 1305q0 72 42 103t87 31q97 0 97 -90q0 -66 -60.5 -122.5t-97.5 -56.5q-33 0 -50.5 52.5t-17.5 82.5zM40 815q0 8 6 17l154 226q9 13 18 13t17 -11q80 -109 148 -145q62 -31 62 -42t-15 -17q-65 -26 -65 -116v-487q0 -70 58 -70q20 0 37 24t34 24q18 0 18 -20
q0 -9 -16 -31q-77 -100 -120 -183q-9 -17 -23.5 -17t-22.5 16t-32 28q-136 65 -136 211v546q0 15 -8 22q-17 15 -30 32q-4 6 -10 6q-5 0 -11 -5l-19 -28q-10 -15 -20 -15q-24 0 -24 22z" />
    <glyph glyph-name="u.hist" horiz-adv-x="949" 
d="M39 936q0 136 197 292q19 15 28 15q18 0 18 -20q0 -14 -13 -25q-81 -68 -81 -137t65 -138q32 -34 57 -70q7 -11 15 -11t16 6l280 206q23 17 35.5 17t12.5 -18q0 -28 58 -79q171 -147 171 -387t-221 -386q-123 -88 -189 -205q-9 -16 -24 -16t-26 17q-67 101 -321 199
q-26 10 -26 20.5t20 26.5q103 83 103 222q0 201 -109 320q-66 72 -66 151zM297 336q0 -9 16 -13q120 -30 227 -138q11 -11 24 -11t23 13q108 142 108 295q0 223 -121 355q-44 48 -75 48t-50 -14l-84 -61q-12 -9 -12 -18t4 -18q48 -96 48 -202t-99 -217q-9 -10 -9 -19z" />
    <glyph glyph-name="U.hist" horiz-adv-x="1591" 
d="M-89 1037q0 177 145 305.5t348 128.5t370 -175q25 -23 44.5 -23t35.5 24q99 174 272.5 174t242.5 -195q49 -139 101 -139q12 0 24 7.5t23 7.5q28 0 28 -29q0 -15 -21 -28q-220 -136 -220 -242.5t116 -204t116 -236.5t-213 -324q-152 -133 -404.5 -133t-423 169.5
t-243.5 169.5t-119 -40q-16 -14 -27 -14q-29 0 -29 29q0 11 16 25q197 172 318 172q30 0 49.5 -5.5t29.5 -5.5q23 0 43 18q134 119 134 327t-116.5 338t-247.5 130t-214.5 -89.5t-83.5 -197.5t68.5 -196t187 -88t180.5 55q17 15 30 15q28 0 28 -27q0 -13 -17 -28
q-90 -79 -244 -79t-240.5 113.5t-86.5 290.5zM569 420.5q0 -8.5 12 -17.5q63 -43 129 -107q231 -232 396 -232q110 0 179 67q48 45 48 136.5t-117.5 195.5t-117.5 237t165 279q16 15 16 26t-24 18q-98 29 -147 177q-44 126 -105.5 126t-105 -69.5t-43.5 -133.5q0 -17 2 -31
q14 -79 14 -151q0 -248 -292 -504q-9 -8 -9 -16.5z" />
    <glyph glyph-name="v.hist" horiz-adv-x="965" 
d="M950 212q0 -9 -16 -32q-77 -100 -120 -183q-9 -17 -23.5 -17t-22.5 16t-32 28q-100 47 -128 141q-5 13 -11 13t-12 5l-209 -195q-9 -8 -16 -8t-13 8q-100 109 -226 158q-27 10 -27 20.5t23 21.5q45 24 45 85v524q0 71 -57 71q-20 0 -37 -24t-35 -24t-18 19q0 9 16 32
q76 100 120 183q9 17 23.5 17t22.5 -16t32 -28q136 -65 136 -212v-566q0 -14 10 -22q62 -43 94 -81q4 -5 9.5 -5t10.5 14l94 88q17 16 17 38v472q0 71 -60 115q-11 8 -11 16t13 16q82 56 139 154q10 17 20.5 17t20.5 -17q59 -102 139 -154q13 -8 13 -16t-11 -16
q-60 -43 -60 -117v-497q0 -71 58 -71q20 0 37 24t34.5 24t17.5 -19z" />
    <glyph glyph-name="r.round" horiz-adv-x="568" 
d="M15 843q0 8 16 29q76 100 120 182q9 17 24 17t18 -11t18 -16q277 -107 277 -312q0 -183 -243 -421q-9 -8 -9 -15.5t13 -12.5q52 -21 117 -81q20 -19 43.5 -19t59.5 42q12 14 23 14q23 0 23 -20q0 -8 -12 -21q-104 -114 -153 -205q-7 -13 -18 -13t-24 13
q-130 128 -243 139q-18 1 -18 9t12 20q259 293 259 491q0 96 -75.5 156t-137.5 60q-24 0 -38 -22t-33 -22t-19 19z" />
    <glyph glyph-name="e_t" horiz-adv-x="568" 
d="M15 843q0 8 16 29q76 100 120 182q9 17 24 17t18 -11t18 -16q277 -107 277 -312q0 -183 -243 -421q-9 -8 -9 -15.5t13 -12.5q52 -21 117 -81q20 -19 43.5 -19t59.5 42q12 14 23 14q23 0 23 -20q0 -8 -12 -21q-104 -114 -153 -205q-7 -13 -18 -13t-24 13
q-130 128 -243 139q-18 1 -18 9t12 20q259 293 259 491q0 96 -75.5 156t-137.5 60q-24 0 -38 -22t-33 -22t-19 19z" />
    <glyph glyph-name="dotlessj.liga" horiz-adv-x="527" 
d="M-77 -376.5q0 20.5 35 25.5q204 30 204 264v872q0 14 -8 21q-17 15 -30 32q-4 6 -9.5 6t-11.5 -8l-19 -28q-10 -15 -20 -15q-24 0 -24 22q0 8 6 17l154 226q9 13 18 13t17 -11q80 -108 148 -143q62 -31 62 -41.5t-15 -16.5q-65 -26 -65 -115v-690q0 -198 116 -314
q11 -11 11 -27q0 -19 -21 -19q-23 0 -103 123q-11 17 -21.5 17t-19.5 -15q-98 -173 -362 -215q-8 -1 -14 -1q-28 0 -28 20.5z" />
    <glyph glyph-name="t.liga" horiz-adv-x="612" 
d="M27 863q0 14 24 30q284 190 368 421q11 29 27 29q19 0 19 -21q0 -11 -4 -23q-95 -280 -95 -326q0 -15 17 -15h165q22 0 22 -22v-65q0 -22 -22 -22h-161q-22 0 -22 -22v-561q0 -72 69 -72q26 0 72 49q13 14 23 14q23 0 23 -21q0 -9 -12 -23q-104 -122 -153 -219
q-7 -14 -18 -14t-24 14q-128 137 -243 151q-17 2 -17 14t11 18q66 36 66 115v535q0 22 -20 22h-89q-26 0 -26 14z" />
    <glyph glyph-name="dotaccent.liga" horiz-adv-x="515" 
d="M125 1226q0 23 13 45q26 47 47.5 107.5t90.5 60.5q102 0 102 -90q0 -64 -50.5 -121.5t-115.5 -57.5q-87 0 -87 56z" />
    <glyph glyph-name="dotlessij" horiz-adv-x="967" 
d="M16 840q0 9 16 31q57 75 120 183q10 17 24 17t22 -16t32 -28q136 -65 136 -211v-502q0 -100 63 -146q20 -14 39 -14t35 13l82 78q16 15 16 39v469q0 71 -60 115q-11 8 -11 15.5t13 16.5q82 56 139 154q10 17 20 17t21 -17q59 -102 139 -154q13 -8 13 -15.5t-11 -16.5
q-60 -42 -60 -114v-697q0 -200 116 -317q11 -11 11 -27q0 -19 -21 -19q-16 0 -103 123q-12 17 -22 17t-19 -15q-138 -205 -368 -205q-38 0 -38 23q0 22 38 22q203 0 203 254v251q0 21 -7 21t-16 -9l-199 -186q-11 -10 -23 -10t-23 7q-170 109 -170 272v539q0 70 -57 70
q-20 0 -37 -24t-35 -24t-18 20z" />
    <glyph glyph-name="dotlessexclm" horiz-adv-x="504" 
d="M77 1272q0 10 16 18q105 55 141 141q8 17 18 17t18 -17q36 -86 141 -141q16 -9 16 -17.5t-13 -17.5q-16 -12 -28 -50q-85 -266 -116 -704q-2 -28 -18 -28t-18 28q-33 439 -116 704q-12 38 -28 50q-13 9 -13 17z" />
    <glyph glyph-name="dotlessquestion" horiz-adv-x="718" 
d="M64 1208q0 8 11 17l221 200q27 23 41 23q15 0 21 -22q6 -21 26 -31q280 -135 280 -355q0 -156 -150 -271t-160 -258q-2 -28 -20 -28t-18 65q0 115 72 217t73 216q0 114 -125 214q-62 50 -120.5 50t-109.5 -50q-10 -10 -22 -10q-20 0 -20 23z" />
    <glyph glyph-name="Circle" horiz-adv-x="1538" 
d="M68 713q0 204 93.5 376t255.5 273t352 101t352 -100t255.5 -273t93.5 -377t-93.5 -376t-255.5 -272.5t-352 -100.5t-352 99.5t-255.5 272.5t-93.5 377zM113 713q0 -192 88 -354t239 -256t329 -94t329 94t239 256t88 354t-88 354t-239 256.5t-329 94.5t-329 -94.5
t-239 -256.5t-88 -354z" />
    <glyph glyph-name="percentslash" horiz-adv-x="1046" 
d="M35 30l916 1430q7 11 15 11t16 -5l22 -14q12 -8 12 -15q0 -8 -5 -16l-916 -1430q-7 -11 -15 -11t-16 5l-22 14q-12 8 -12 15q0 8 5 16z" />
    <glyph glyph-name="udieresis.hist" horiz-adv-x="949" 
d="M39 936q0 136 197 292q19 15 28 15q18 0 18 -20q0 -14 -13 -25q-81 -68 -81 -137t65 -138q32 -34 57 -70q7 -11 15 -11t16 6l280 206q23 17 35.5 17t12.5 -18q0 -28 58 -79q171 -147 171 -387t-221 -386q-123 -88 -189 -205q-9 -16 -24 -16t-26 17q-67 101 -321 199
q-26 10 -26 20.5t20 26.5q103 83 103 222q0 201 -109 320q-66 72 -66 151zM297 336q0 -9 16 -13q120 -30 227 -138q11 -11 24 -11t23 13q108 142 108 295q0 223 -121 355q-44 48 -75 48t-50 -14l-84 -61q-12 -9 -12 -18t4 -18q48 -96 48 -202t-99 -217q-9 -10 -9 -19z" />
    </font>
</defs>
</svg>
